<svg width="1512" height="6650" viewBox="0 0 1512 6650" fill="none" xmlns="http://www.w3.org/2000/svg">
<g opacity="0.3">
<rect x="-19.75" y="0.25" width="174.5" height="189.5" stroke="#C2C2C7" stroke-width="0.5"/>
<rect x="155.25" y="0.25" width="174.5" height="189.5" stroke="#C2C2C7" stroke-width="0.5"/>
<rect x="330.25" y="0.25" width="174.5" height="189.5" stroke="#C2C2C7" stroke-width="0.5"/>
<rect x="505.25" y="0.25" width="174.5" height="189.5" stroke="#C2C2C7" stroke-width="0.5"/>
<rect x="680.25" y="0.25" width="174.5" height="189.5" stroke="#C2C2C7" stroke-width="0.5"/>
<rect x="855.25" y="0.25" width="174.5" height="189.5" stroke="#C2C2C7" stroke-width="0.5"/>
<rect x="1030.25" y="0.25" width="174.5" height="189.5" stroke="#C2C2C7" stroke-width="0.5"/>
<rect x="1205.25" y="0.25" width="174.5" height="189.5" stroke="#C2C2C7" stroke-width="0.5"/>
<rect x="1380.25" y="0.25" width="174.5" height="189.5" stroke="#C2C2C7" stroke-width="0.5"/>
<rect x="-19.75" y="190.25" width="174.5" height="189.5" stroke="#C2C2C7" stroke-width="0.5"/>
<rect x="155.25" y="190.25" width="174.5" height="189.5" stroke="#C2C2C7" stroke-width="0.5"/>
<rect x="330.25" y="190.25" width="174.5" height="189.5" stroke="#C2C2C7" stroke-width="0.5"/>
<rect x="505.25" y="190.25" width="174.5" height="189.5" stroke="#C2C2C7" stroke-width="0.5"/>
<rect x="680.25" y="190.25" width="174.5" height="189.5" stroke="#C2C2C7" stroke-width="0.5"/>
<rect x="855.25" y="190.25" width="174.5" height="189.5" stroke="#C2C2C7" stroke-width="0.5"/>
<rect x="1030.25" y="190.25" width="174.5" height="189.5" stroke="#C2C2C7" stroke-width="0.5"/>
<rect x="1205.25" y="190.25" width="174.5" height="189.5" stroke="#C2C2C7" stroke-width="0.5"/>
<rect x="1380.25" y="190.25" width="174.5" height="189.5" stroke="#C2C2C7" stroke-width="0.5"/>
<rect x="-19.75" y="380.25" width="174.5" height="189.5" stroke="#C2C2C7" stroke-width="0.5"/>
<rect opacity="0.3" x="155.25" y="380.25" width="174.5" height="189.5" stroke="#C2C2C7" stroke-width="0.5"/>
<rect opacity="0.3" x="330.25" y="380.25" width="174.5" height="189.5" stroke="#C2C2C7" stroke-width="0.5"/>
<rect opacity="0.3" x="505.25" y="380.25" width="174.5" height="189.5" stroke="#C2C2C7" stroke-width="0.5"/>
<rect opacity="0.3" x="680.25" y="380.25" width="174.5" height="189.5" stroke="#C2C2C7" stroke-width="0.5"/>
<rect opacity="0.3" x="855.25" y="380.25" width="174.5" height="189.5" stroke="#C2C2C7" stroke-width="0.5"/>
<rect opacity="0.3" x="1030.25" y="380.25" width="174.5" height="189.5" stroke="#C2C2C7" stroke-width="0.5"/>
<rect opacity="0.3" x="1205.25" y="380.25" width="174.5" height="189.5" stroke="#C2C2C7" stroke-width="0.5"/>
<rect x="1380.25" y="380.25" width="174.5" height="189.5" stroke="#C2C2C7" stroke-width="0.5"/>
<rect x="-19.75" y="570.25" width="174.5" height="189.5" stroke="#C2C2C7" stroke-width="0.5"/>
<rect opacity="0.3" x="155.25" y="570.25" width="174.5" height="189.5" stroke="#C2C2C7" stroke-width="0.5"/>
<rect opacity="0.3" x="330.25" y="570.25" width="174.5" height="189.5" stroke="#C2C2C7" stroke-width="0.5"/>
<rect opacity="0.3" x="505.25" y="570.25" width="174.5" height="189.5" stroke="#C2C2C7" stroke-width="0.5"/>
<rect opacity="0.3" x="680.25" y="570.25" width="174.5" height="189.5" stroke="#C2C2C7" stroke-width="0.5"/>
<rect opacity="0.3" x="855.25" y="570.25" width="174.5" height="189.5" stroke="#C2C2C7" stroke-width="0.5"/>
<rect opacity="0.3" x="1030.25" y="570.25" width="174.5" height="189.5" stroke="#C2C2C7" stroke-width="0.5"/>
<rect opacity="0.3" x="1205.25" y="570.25" width="174.5" height="189.5" stroke="#C2C2C7" stroke-width="0.5"/>
<rect x="1380.25" y="570.25" width="174.5" height="189.5" stroke="#C2C2C7" stroke-width="0.5"/>
<rect x="-19.75" y="760.25" width="174.5" height="189.5" stroke="#C2C2C7" stroke-width="0.5"/>
<rect opacity="0.3" x="155.25" y="760.25" width="174.5" height="189.5" stroke="#C2C2C7" stroke-width="0.5"/>
<rect opacity="0.3" x="330.25" y="760.25" width="174.5" height="189.5" stroke="#C2C2C7" stroke-width="0.5"/>
<rect opacity="0.3" x="505.25" y="760.25" width="174.5" height="189.5" stroke="#C2C2C7" stroke-width="0.5"/>
<rect opacity="0.3" x="680.25" y="760.25" width="174.5" height="189.5" stroke="#C2C2C7" stroke-width="0.5"/>
<rect opacity="0.3" x="855.25" y="760.25" width="174.5" height="189.5" stroke="#C2C2C7" stroke-width="0.5"/>
<rect opacity="0.3" x="1030.25" y="760.25" width="174.5" height="189.5" stroke="#C2C2C7" stroke-width="0.5"/>
<rect opacity="0.3" x="1205.25" y="760.25" width="174.5" height="189.5" stroke="#C2C2C7" stroke-width="0.5"/>
<rect x="1380.25" y="760.25" width="174.5" height="189.5" stroke="#C2C2C7" stroke-width="0.5"/>
</g>
<g opacity="0.3">
<rect x="-19.75" y="950.25" width="174.5" height="189.5" stroke="#C2C2C7" stroke-width="0.5"/>
<rect opacity="0.3" x="155.25" y="950.25" width="174.5" height="189.5" stroke="#C2C2C7" stroke-width="0.5"/>
<rect opacity="0.3" x="330.25" y="950.25" width="174.5" height="189.5" stroke="#C2C2C7" stroke-width="0.5"/>
<rect opacity="0.3" x="505.25" y="950.25" width="174.5" height="189.5" stroke="#C2C2C7" stroke-width="0.5"/>
<rect opacity="0.3" x="680.25" y="950.25" width="174.5" height="189.5" stroke="#C2C2C7" stroke-width="0.5"/>
<rect opacity="0.3" x="855.25" y="950.25" width="174.5" height="189.5" stroke="#C2C2C7" stroke-width="0.5"/>
<rect opacity="0.3" x="1030.25" y="950.25" width="174.5" height="189.5" stroke="#C2C2C7" stroke-width="0.5"/>
<rect opacity="0.3" x="1205.25" y="950.25" width="174.5" height="189.5" stroke="#C2C2C7" stroke-width="0.5"/>
<rect x="1380.25" y="950.25" width="174.5" height="189.5" stroke="#C2C2C7" stroke-width="0.5"/>
<rect x="-19.75" y="1140.25" width="174.5" height="189.5" stroke="#C2C2C7" stroke-width="0.5"/>
<rect opacity="0.3" x="155.25" y="1140.25" width="174.5" height="189.5" stroke="#C2C2C7" stroke-width="0.5"/>
<rect opacity="0.3" x="330.25" y="1140.25" width="174.5" height="189.5" stroke="#C2C2C7" stroke-width="0.5"/>
<rect opacity="0.3" x="505.25" y="1140.25" width="174.5" height="189.5" stroke="#C2C2C7" stroke-width="0.5"/>
<rect opacity="0.3" x="680.25" y="1140.25" width="174.5" height="189.5" stroke="#C2C2C7" stroke-width="0.5"/>
<rect opacity="0.3" x="855.25" y="1140.25" width="174.5" height="189.5" stroke="#C2C2C7" stroke-width="0.5"/>
<rect opacity="0.3" x="1030.25" y="1140.25" width="174.5" height="189.5" stroke="#C2C2C7" stroke-width="0.5"/>
<rect opacity="0.3" x="1205.25" y="1140.25" width="174.5" height="189.5" stroke="#C2C2C7" stroke-width="0.5"/>
<rect x="1380.25" y="1140.25" width="174.5" height="189.5" stroke="#C2C2C7" stroke-width="0.5"/>
<rect x="-19.75" y="1330.25" width="174.5" height="189.5" stroke="#C2C2C7" stroke-width="0.5"/>
<rect x="155.25" y="1330.25" width="174.5" height="189.5" stroke="#C2C2C7" stroke-width="0.5"/>
<rect x="330.25" y="1330.25" width="174.5" height="189.5" stroke="#C2C2C7" stroke-width="0.5"/>
<rect x="505.25" y="1330.25" width="174.5" height="189.5" stroke="#C2C2C7" stroke-width="0.5"/>
<rect x="680.25" y="1330.25" width="174.5" height="189.5" stroke="#C2C2C7" stroke-width="0.5"/>
<rect x="855.25" y="1330.25" width="174.5" height="189.5" stroke="#C2C2C7" stroke-width="0.5"/>
<rect x="1030.25" y="1330.25" width="174.5" height="189.5" stroke="#C2C2C7" stroke-width="0.5"/>
<rect x="1205.25" y="1330.25" width="174.5" height="189.5" stroke="#C2C2C7" stroke-width="0.5"/>
<rect x="1380.25" y="1330.25" width="174.5" height="189.5" stroke="#C2C2C7" stroke-width="0.5"/>
<rect x="-19.75" y="1520.25" width="174.5" height="189.5" stroke="#C2C2C7" stroke-width="0.5"/>
<rect x="155.25" y="1520.25" width="174.5" height="189.5" stroke="#C2C2C7" stroke-width="0.5"/>
<rect x="330.25" y="1520.25" width="174.5" height="189.5" stroke="#C2C2C7" stroke-width="0.5"/>
<rect x="505.25" y="1520.25" width="174.5" height="189.5" stroke="#C2C2C7" stroke-width="0.5"/>
<rect x="680.25" y="1520.25" width="174.5" height="189.5" stroke="#C2C2C7" stroke-width="0.5"/>
<rect opacity="0.3" x="855.25" y="1520.25" width="174.5" height="189.5" stroke="#C2C2C7" stroke-width="0.5"/>
<rect opacity="0.3" x="1030.25" y="1520.25" width="174.5" height="189.5" stroke="#C2C2C7" stroke-width="0.5"/>
<rect opacity="0.3" x="1205.25" y="1520.25" width="174.5" height="189.5" stroke="#C2C2C7" stroke-width="0.5"/>
<rect opacity="0.3" x="1380.25" y="1520.25" width="174.5" height="189.5" stroke="#C2C2C7" stroke-width="0.5"/>
</g>
<g opacity="0.3">
<rect x="-19.75" y="2470.25" width="174.5" height="189.5" stroke="#C2C2C7" stroke-width="0.5"/>
<rect x="155.25" y="2470.25" width="174.5" height="189.5" stroke="#C2C2C7" stroke-width="0.5"/>
<rect opacity="0.3" x="330.25" y="2470.25" width="174.5" height="189.5" stroke="#C2C2C7" stroke-width="0.5"/>
<rect opacity="0.3" x="505.25" y="2470.25" width="174.5" height="189.5" stroke="#C2C2C7" stroke-width="0.5"/>
<rect opacity="0.3" x="680.25" y="2470.25" width="174.5" height="189.5" stroke="#C2C2C7" stroke-width="0.5"/>
<rect opacity="0.3" x="855.25" y="2470.25" width="174.5" height="189.5" stroke="#C2C2C7" stroke-width="0.5"/>
<rect x="1030.25" y="2470.25" width="174.5" height="189.5" stroke="#C2C2C7" stroke-width="0.5"/>
<rect x="1205.25" y="2470.25" width="174.5" height="189.5" stroke="#C2C2C7" stroke-width="0.5"/>
<rect x="1380.25" y="2470.25" width="174.5" height="189.5" stroke="#C2C2C7" stroke-width="0.5"/>
<rect x="-19.75" y="2660.25" width="174.5" height="189.5" stroke="#C2C2C7" stroke-width="0.5"/>
<rect x="155.25" y="2660.25" width="174.5" height="189.5" stroke="#C2C2C7" stroke-width="0.5"/>
<rect x="330.25" y="2660.25" width="174.5" height="189.5" stroke="#C2C2C7" stroke-width="0.5"/>
<rect x="505.25" y="2660.25" width="174.5" height="189.5" stroke="#C2C2C7" stroke-width="0.5"/>
<rect x="680.25" y="2660.25" width="174.5" height="189.5" stroke="#C2C2C7" stroke-width="0.5"/>
<rect x="855.25" y="2660.25" width="174.5" height="189.5" stroke="#C2C2C7" stroke-width="0.5"/>
<rect x="1030.25" y="2660.25" width="174.5" height="189.5" stroke="#C2C2C7" stroke-width="0.5"/>
<rect x="1205.25" y="2660.25" width="174.5" height="189.5" stroke="#C2C2C7" stroke-width="0.5"/>
<rect x="1380.25" y="2660.25" width="174.5" height="189.5" stroke="#C2C2C7" stroke-width="0.5"/>
</g>
<g opacity="0.3">
<rect x="-19.75" y="2850.25" width="174.5" height="189.5" stroke="#C2C2C7" stroke-width="0.5"/>
<rect x="155.25" y="2850.25" width="174.5" height="189.5" stroke="#C2C2C7" stroke-width="0.5"/>
<rect x="330.25" y="2850.25" width="174.5" height="189.5" stroke="#C2C2C7" stroke-width="0.5"/>
<rect opacity="0.2" x="505.25" y="2850.25" width="174.5" height="189.5" stroke="#C2C2C7" stroke-width="0.5"/>
<rect opacity="0.2" x="680.25" y="2850.25" width="174.5" height="189.5" stroke="#C2C2C7" stroke-width="0.5"/>
<rect opacity="0.2" x="855.25" y="2850.25" width="174.5" height="189.5" stroke="#C2C2C7" stroke-width="0.5"/>
<rect opacity="0.2" x="1030.25" y="2850.25" width="174.5" height="189.5" stroke="#C2C2C7" stroke-width="0.5"/>
<rect opacity="0.2" x="1205.25" y="2850.25" width="174.5" height="189.5" stroke="#C2C2C7" stroke-width="0.5"/>
<rect opacity="0.2" x="1380.25" y="2850.25" width="174.5" height="189.5" stroke="#C2C2C7" stroke-width="0.5"/>
<rect x="-19.75" y="3040.25" width="174.5" height="189.5" stroke="#C2C2C7" stroke-width="0.5"/>
<rect x="155.25" y="3040.25" width="174.5" height="189.5" stroke="#C2C2C7" stroke-width="0.5"/>
<rect x="330.25" y="3040.25" width="174.5" height="189.5" stroke="#C2C2C7" stroke-width="0.5"/>
<rect opacity="0.3" x="505.25" y="3040.25" width="174.5" height="189.5" stroke="#C2C2C7" stroke-width="0.5"/>
<rect opacity="0.3" x="680.25" y="3040.25" width="174.5" height="189.5" stroke="#C2C2C7" stroke-width="0.5"/>
<rect opacity="0.3" x="855.25" y="3040.25" width="174.5" height="189.5" stroke="#C2C2C7" stroke-width="0.5"/>
<rect opacity="0.3" x="1030.25" y="3040.25" width="174.5" height="189.5" stroke="#C2C2C7" stroke-width="0.5"/>
<rect opacity="0.3" x="1205.25" y="3040.25" width="174.5" height="189.5" stroke="#C2C2C7" stroke-width="0.5"/>
<rect x="1380.25" y="3040.25" width="174.5" height="189.5" stroke="#C2C2C7" stroke-width="0.5"/>
<rect x="-19.75" y="3230.25" width="174.5" height="189.5" stroke="#C2C2C7" stroke-width="0.5"/>
<rect x="155.25" y="3230.25" width="174.5" height="189.5" stroke="#C2C2C7" stroke-width="0.5"/>
<rect x="330.25" y="3230.25" width="174.5" height="189.5" stroke="#C2C2C7" stroke-width="0.5"/>
<rect opacity="0.3" x="505.25" y="3230.25" width="174.5" height="189.5" stroke="#C2C2C7" stroke-width="0.5"/>
<rect opacity="0.3" x="680.25" y="3230.25" width="174.5" height="189.5" stroke="#C2C2C7" stroke-width="0.5"/>
<rect opacity="0.3" x="855.25" y="3230.25" width="174.5" height="189.5" stroke="#C2C2C7" stroke-width="0.5"/>
<rect opacity="0.3" x="1030.25" y="3230.25" width="174.5" height="189.5" stroke="#C2C2C7" stroke-width="0.5"/>
<rect opacity="0.3" x="1205.25" y="3230.25" width="174.5" height="189.5" stroke="#C2C2C7" stroke-width="0.5"/>
<rect x="1380.25" y="3230.25" width="174.5" height="189.5" stroke="#C2C2C7" stroke-width="0.5"/>
<rect opacity="0.2" x="-19.75" y="3420.25" width="174.5" height="189.5" stroke="#C2C2C7" stroke-width="0.5"/>
<rect opacity="0.2" x="155.25" y="3420.25" width="174.5" height="189.5" stroke="#C2C2C7" stroke-width="0.5"/>
<rect opacity="0.2" x="330.25" y="3420.25" width="174.5" height="189.5" stroke="#C2C2C7" stroke-width="0.5"/>
<rect opacity="0.2" x="505.25" y="3420.25" width="174.5" height="189.5" stroke="#C2C2C7" stroke-width="0.5"/>
<rect opacity="0.3" x="680.25" y="3420.25" width="174.5" height="189.5" stroke="#C2C2C7" stroke-width="0.5"/>
<rect opacity="0.3" x="855.25" y="3420.25" width="174.5" height="189.5" stroke="#C2C2C7" stroke-width="0.5"/>
<rect opacity="0.3" x="1030.25" y="3420.25" width="174.5" height="189.5" stroke="#C2C2C7" stroke-width="0.5"/>
<rect opacity="0.3" x="1205.25" y="3420.25" width="174.5" height="189.5" stroke="#C2C2C7" stroke-width="0.5"/>
<rect x="1380.25" y="3420.25" width="174.5" height="189.5" stroke="#C2C2C7" stroke-width="0.5"/>
<rect opacity="0.2" x="-19.75" y="3610.25" width="174.5" height="189.5" stroke="#C2C2C7" stroke-width="0.5"/>
<rect opacity="0.2" x="155.25" y="3610.25" width="174.5" height="189.5" stroke="#C2C2C7" stroke-width="0.5"/>
<rect opacity="0.2" x="330.25" y="3610.25" width="174.5" height="189.5" stroke="#C2C2C7" stroke-width="0.5"/>
<rect opacity="0.2" x="505.25" y="3610.25" width="174.5" height="189.5" stroke="#C2C2C7" stroke-width="0.5"/>
<rect opacity="0.2" x="680.25" y="3610.25" width="174.5" height="189.5" stroke="#C2C2C7" stroke-width="0.5"/>
<rect opacity="0.2" x="855.25" y="3610.25" width="174.5" height="189.5" stroke="#C2C2C7" stroke-width="0.5"/>
<rect opacity="0.2" x="1030.25" y="3610.25" width="174.5" height="189.5" stroke="#C2C2C7" stroke-width="0.5"/>
<rect opacity="0.2" x="1205.25" y="3610.25" width="174.5" height="189.5" stroke="#C2C2C7" stroke-width="0.5"/>
<rect x="1380.25" y="3610.25" width="174.5" height="189.5" stroke="#C2C2C7" stroke-width="0.5"/>
</g>
<g opacity="0.3">
<rect x="-19.75" y="3800.25" width="174.5" height="189.5" stroke="#C2C2C7" stroke-width="0.5"/>
<rect x="155.25" y="3800.25" width="174.5" height="189.5" stroke="#C2C2C7" stroke-width="0.5"/>
<rect x="330.25" y="3800.25" width="174.5" height="189.5" stroke="#C2C2C7" stroke-width="0.5"/>
<rect x="505.25" y="3800.25" width="174.5" height="189.5" stroke="#C2C2C7" stroke-width="0.5"/>
<rect x="680.25" y="3800.25" width="174.5" height="189.5" stroke="#C2C2C7" stroke-width="0.5"/>
<rect opacity="0.3" x="855.25" y="3800.25" width="174.5" height="189.5" stroke="#C2C2C7" stroke-width="0.5"/>
<rect opacity="0.3" x="1030.25" y="3800.25" width="174.5" height="189.5" stroke="#C2C2C7" stroke-width="0.5"/>
<rect opacity="0.3" x="1205.25" y="3800.25" width="174.5" height="189.5" stroke="#C2C2C7" stroke-width="0.5"/>
<rect opacity="0.3" x="1380.25" y="3800.25" width="174.5" height="189.5" stroke="#C2C2C7" stroke-width="0.5"/>
<rect x="-19.75" y="3990.25" width="174.5" height="189.5" stroke="#C2C2C7" stroke-width="0.5"/>
<rect x="155.25" y="3990.25" width="174.5" height="189.5" stroke="#C2C2C7" stroke-width="0.5"/>
<rect x="330.25" y="3990.25" width="174.5" height="189.5" stroke="#C2C2C7" stroke-width="0.5"/>
<rect x="505.25" y="3990.25" width="174.5" height="189.5" stroke="#C2C2C7" stroke-width="0.5"/>
<rect x="680.25" y="3990.25" width="174.5" height="189.5" stroke="#C2C2C7" stroke-width="0.5"/>
<rect opacity="0.3" x="855.25" y="3990.25" width="174.5" height="189.5" stroke="#C2C2C7" stroke-width="0.5"/>
<rect opacity="0.3" x="1030.25" y="3990.25" width="174.5" height="189.5" stroke="#C2C2C7" stroke-width="0.5"/>
<rect opacity="0.3" x="1205.25" y="3990.25" width="174.5" height="189.5" stroke="#C2C2C7" stroke-width="0.5"/>
<rect opacity="0.3" x="1380.25" y="3990.25" width="174.5" height="189.5" stroke="#C2C2C7" stroke-width="0.5"/>
<rect opacity="0.3" x="-19.75" y="4180.25" width="174.5" height="189.5" stroke="#C2C2C7" stroke-width="0.5"/>
<rect opacity="0.3" x="155.25" y="4180.25" width="174.5" height="189.5" stroke="#C2C2C7" stroke-width="0.5"/>
<rect opacity="0.3" x="330.25" y="4180.25" width="174.5" height="189.5" stroke="#C2C2C7" stroke-width="0.5"/>
<rect x="505.25" y="4180.25" width="174.5" height="189.5" stroke="#C2C2C7" stroke-width="0.5"/>
<rect x="680.25" y="4180.25" width="174.5" height="189.5" stroke="#C2C2C7" stroke-width="0.5"/>
<rect opacity="0.3" x="855.25" y="4180.25" width="174.5" height="189.5" stroke="#C2C2C7" stroke-width="0.5"/>
<rect opacity="0.3" x="1030.25" y="4180.25" width="174.5" height="189.5" stroke="#C2C2C7" stroke-width="0.5"/>
<rect opacity="0.3" x="1205.25" y="4180.25" width="174.5" height="189.5" stroke="#C2C2C7" stroke-width="0.5"/>
<rect opacity="0.3" x="1380.25" y="4180.25" width="174.5" height="189.5" stroke="#C2C2C7" stroke-width="0.5"/>
<rect opacity="0.3" x="-19.75" y="4370.25" width="174.5" height="189.5" stroke="#C2C2C7" stroke-width="0.5"/>
<rect opacity="0.3" x="155.25" y="4370.25" width="174.5" height="189.5" stroke="#C2C2C7" stroke-width="0.5"/>
<rect opacity="0.3" x="330.25" y="4370.25" width="174.5" height="189.5" stroke="#C2C2C7" stroke-width="0.5"/>
<rect x="505.25" y="4370.25" width="174.5" height="189.5" stroke="#C2C2C7" stroke-width="0.5"/>
<rect x="680.25" y="4370.25" width="174.5" height="189.5" stroke="#C2C2C7" stroke-width="0.5"/>
<rect opacity="0.3" x="855.25" y="4370.25" width="174.5" height="189.5" stroke="#C2C2C7" stroke-width="0.5"/>
<rect opacity="0.3" x="1030.25" y="4370.25" width="174.5" height="189.5" stroke="#C2C2C7" stroke-width="0.5"/>
<rect opacity="0.3" x="1205.25" y="4370.25" width="174.5" height="189.5" stroke="#C2C2C7" stroke-width="0.5"/>
<rect opacity="0.3" x="1380.25" y="4370.25" width="174.5" height="189.5" stroke="#C2C2C7" stroke-width="0.5"/>
<rect opacity="0.2" x="-19.75" y="4560.25" width="174.5" height="189.5" stroke="#C2C2C7" stroke-width="0.5"/>
<rect opacity="0.2" x="155.25" y="4560.25" width="174.5" height="189.5" stroke="#C2C2C7" stroke-width="0.5"/>
<rect opacity="0.2" x="330.25" y="4560.25" width="174.5" height="189.5" stroke="#C2C2C7" stroke-width="0.5"/>
<rect opacity="0.2" x="505.25" y="4560.25" width="174.5" height="189.5" stroke="#C2C2C7" stroke-width="0.5"/>
<rect opacity="0.2" x="680.25" y="4560.25" width="174.5" height="189.5" stroke="#C2C2C7" stroke-width="0.5"/>
<rect opacity="0.2" x="855.25" y="4560.25" width="174.5" height="189.5" stroke="#C2C2C7" stroke-width="0.5"/>
<rect opacity="0.2" x="1030.25" y="4560.25" width="174.5" height="189.5" stroke="#C2C2C7" stroke-width="0.5"/>
<rect opacity="0.2" x="1205.25" y="4560.25" width="174.5" height="189.5" stroke="#C2C2C7" stroke-width="0.5"/>
<rect opacity="0.2" x="1380.25" y="4560.25" width="174.5" height="189.5" stroke="#C2C2C7" stroke-width="0.5"/>
</g>
<g opacity="0.3">
<rect opacity="0.2" x="-19.75" y="4750.25" width="174.5" height="189.5" stroke="#C2C2C7" stroke-width="0.5"/>
<rect opacity="0.2" x="155.25" y="4750.25" width="174.5" height="189.5" stroke="#C2C2C7" stroke-width="0.5"/>
<rect opacity="0.2" x="330.25" y="4750.25" width="174.5" height="189.5" stroke="#C2C2C7" stroke-width="0.5"/>
<rect opacity="0.2" x="505.25" y="4750.25" width="174.5" height="189.5" stroke="#C2C2C7" stroke-width="0.5"/>
<rect opacity="0.2" x="680.25" y="4750.25" width="174.5" height="189.5" stroke="#C2C2C7" stroke-width="0.5"/>
<rect opacity="0.2" x="855.25" y="4750.25" width="174.5" height="189.5" stroke="#C2C2C7" stroke-width="0.5"/>
<rect opacity="0.2" x="1030.25" y="4750.25" width="174.5" height="189.5" stroke="#C2C2C7" stroke-width="0.5"/>
<rect opacity="0.2" x="1205.25" y="4750.25" width="174.5" height="189.5" stroke="#C2C2C7" stroke-width="0.5"/>
<rect opacity="0.2" x="1380.25" y="4750.25" width="174.5" height="189.5" stroke="#C2C2C7" stroke-width="0.5"/>
<rect opacity="0.1" x="-19.75" y="4940.25" width="174.5" height="189.5" stroke="#C2C2C7" stroke-width="0.5"/>
<rect opacity="0.1" x="155.25" y="4940.25" width="174.5" height="189.5" stroke="#C2C2C7" stroke-width="0.5"/>
<rect opacity="0.1" x="330.25" y="4940.25" width="174.5" height="189.5" stroke="#C2C2C7" stroke-width="0.5"/>
<rect opacity="0.1" x="505.25" y="4940.25" width="174.5" height="189.5" stroke="#C2C2C7" stroke-width="0.5"/>
<rect opacity="0.1" x="680.25" y="4940.25" width="174.5" height="189.5" stroke="#C2C2C7" stroke-width="0.5"/>
<rect opacity="0.1" x="855.25" y="4940.25" width="174.5" height="189.5" stroke="#C2C2C7" stroke-width="0.5"/>
<rect opacity="0.1" x="1030.25" y="4940.25" width="174.5" height="189.5" stroke="#C2C2C7" stroke-width="0.5"/>
<rect opacity="0.1" x="1205.25" y="4940.25" width="174.5" height="189.5" stroke="#C2C2C7" stroke-width="0.5"/>
<rect opacity="0.1" x="1380.25" y="4940.25" width="174.5" height="189.5" stroke="#C2C2C7" stroke-width="0.5"/>
<rect opacity="0.1" x="-19.75" y="5130.25" width="174.5" height="189.5" stroke="#C2C2C7" stroke-width="0.5"/>
<rect opacity="0.1" x="155.25" y="5130.25" width="174.5" height="189.5" stroke="#C2C2C7" stroke-width="0.5"/>
<rect opacity="0.1" x="330.25" y="5130.25" width="174.5" height="189.5" stroke="#C2C2C7" stroke-width="0.5"/>
<rect opacity="0.1" x="505.25" y="5130.25" width="174.5" height="189.5" stroke="#C2C2C7" stroke-width="0.5"/>
<rect opacity="0.1" x="680.25" y="5130.25" width="174.5" height="189.5" stroke="#C2C2C7" stroke-width="0.5"/>
<rect opacity="0.1" x="855.25" y="5130.25" width="174.5" height="189.5" stroke="#C2C2C7" stroke-width="0.5"/>
<rect opacity="0.1" x="1030.25" y="5130.25" width="174.5" height="189.5" stroke="#C2C2C7" stroke-width="0.5"/>
<rect opacity="0.1" x="1205.25" y="5130.25" width="174.5" height="189.5" stroke="#C2C2C7" stroke-width="0.5"/>
<rect opacity="0.1" x="1380.25" y="5130.25" width="174.5" height="189.5" stroke="#C2C2C7" stroke-width="0.5"/>
<rect opacity="0.1" x="-19.75" y="5320.25" width="174.5" height="189.5" stroke="#C2C2C7" stroke-width="0.5"/>
<rect opacity="0.1" x="155.25" y="5320.25" width="174.5" height="189.5" stroke="#C2C2C7" stroke-width="0.5"/>
<rect opacity="0.1" x="330.25" y="5320.25" width="174.5" height="189.5" stroke="#C2C2C7" stroke-width="0.5"/>
<rect opacity="0.1" x="505.25" y="5320.25" width="174.5" height="189.5" stroke="#C2C2C7" stroke-width="0.5"/>
<rect opacity="0.1" x="680.25" y="5320.25" width="174.5" height="189.5" stroke="#C2C2C7" stroke-width="0.5"/>
<rect opacity="0.1" x="855.25" y="5320.25" width="174.5" height="189.5" stroke="#C2C2C7" stroke-width="0.5"/>
<rect opacity="0.1" x="1030.25" y="5320.25" width="174.5" height="189.5" stroke="#C2C2C7" stroke-width="0.5"/>
<rect opacity="0.1" x="1205.25" y="5320.25" width="174.5" height="189.5" stroke="#C2C2C7" stroke-width="0.5"/>
<rect opacity="0.1" x="1380.25" y="5320.25" width="174.5" height="189.5" stroke="#C2C2C7" stroke-width="0.5"/>
<rect opacity="0.1" x="-19.75" y="5510.25" width="174.5" height="189.5" stroke="#C2C2C7" stroke-width="0.5"/>
<rect opacity="0.1" x="155.25" y="5510.25" width="174.5" height="189.5" stroke="#C2C2C7" stroke-width="0.5"/>
<rect opacity="0.1" x="330.25" y="5510.25" width="174.5" height="189.5" stroke="#C2C2C7" stroke-width="0.5"/>
<rect opacity="0.1" x="505.25" y="5510.25" width="174.5" height="189.5" stroke="#C2C2C7" stroke-width="0.5"/>
<rect opacity="0.1" x="680.25" y="5510.25" width="174.5" height="189.5" stroke="#C2C2C7" stroke-width="0.5"/>
<rect opacity="0.1" x="855.25" y="5510.25" width="174.5" height="189.5" stroke="#C2C2C7" stroke-width="0.5"/>
<rect opacity="0.1" x="1030.25" y="5510.25" width="174.5" height="189.5" stroke="#C2C2C7" stroke-width="0.5"/>
<rect opacity="0.1" x="1205.25" y="5510.25" width="174.5" height="189.5" stroke="#C2C2C7" stroke-width="0.5"/>
<rect opacity="0.1" x="1380.25" y="5510.25" width="174.5" height="189.5" stroke="#C2C2C7" stroke-width="0.5"/>
</g>
<g opacity="0.1">
<rect x="-19.75" y="5700.25" width="174.5" height="189.5" stroke="#C2C2C7" stroke-width="0.5"/>
<rect opacity="0.3" x="155.25" y="5700.25" width="174.5" height="189.5" stroke="#C2C2C7" stroke-width="0.5"/>
<rect opacity="0.3" x="330.25" y="5700.25" width="174.5" height="189.5" stroke="#C2C2C7" stroke-width="0.5"/>
<rect opacity="0.3" x="505.25" y="5700.25" width="174.5" height="189.5" stroke="#C2C2C7" stroke-width="0.5"/>
<rect opacity="0.3" x="680.25" y="5700.25" width="174.5" height="189.5" stroke="#C2C2C7" stroke-width="0.5"/>
<rect opacity="0.3" x="855.25" y="5700.25" width="174.5" height="189.5" stroke="#C2C2C7" stroke-width="0.5"/>
<rect opacity="0.3" x="1030.25" y="5700.25" width="174.5" height="189.5" stroke="#C2C2C7" stroke-width="0.5"/>
<rect opacity="0.3" x="1205.25" y="5700.25" width="174.5" height="189.5" stroke="#C2C2C7" stroke-width="0.5"/>
<rect x="1380.25" y="5700.25" width="174.5" height="189.5" stroke="#C2C2C7" stroke-width="0.5"/>
<rect x="-19.75" y="5890.25" width="174.5" height="189.5" stroke="#C2C2C7" stroke-width="0.5"/>
<rect x="155.25" y="5890.25" width="174.5" height="189.5" stroke="#C2C2C7" stroke-width="0.5"/>
<rect x="330.25" y="5890.25" width="174.5" height="189.5" stroke="#C2C2C7" stroke-width="0.5"/>
<rect x="505.25" y="5890.25" width="174.5" height="189.5" stroke="#C2C2C7" stroke-width="0.5"/>
<rect x="680.25" y="5890.25" width="174.5" height="189.5" stroke="#C2C2C7" stroke-width="0.5"/>
<rect x="855.25" y="5890.25" width="174.5" height="189.5" stroke="#C2C2C7" stroke-width="0.5"/>
<rect x="1030.25" y="5890.25" width="174.5" height="189.5" stroke="#C2C2C7" stroke-width="0.5"/>
<rect x="1205.25" y="5890.25" width="174.5" height="189.5" stroke="#C2C2C7" stroke-width="0.5"/>
<rect x="1380.25" y="5890.25" width="174.5" height="189.5" stroke="#C2C2C7" stroke-width="0.5"/>
<rect x="-19.75" y="6080.25" width="174.5" height="189.5" stroke="#C2C2C7" stroke-width="0.5"/>
<rect x="155.25" y="6080.25" width="174.5" height="189.5" stroke="#C2C2C7" stroke-width="0.5"/>
<rect x="330.25" y="6080.25" width="174.5" height="189.5" stroke="#C2C2C7" stroke-width="0.5"/>
<rect x="505.25" y="6080.25" width="174.5" height="189.5" stroke="#C2C2C7" stroke-width="0.5"/>
<rect x="680.25" y="6080.25" width="174.5" height="189.5" stroke="#C2C2C7" stroke-width="0.5"/>
<rect x="855.25" y="6080.25" width="174.5" height="189.5" stroke="#C2C2C7" stroke-width="0.5"/>
<rect x="1030.25" y="6080.25" width="174.5" height="189.5" stroke="#C2C2C7" stroke-width="0.5"/>
<rect x="1205.25" y="6080.25" width="174.5" height="189.5" stroke="#C2C2C7" stroke-width="0.5"/>
<rect x="1380.25" y="6080.25" width="174.5" height="189.5" stroke="#C2C2C7" stroke-width="0.5"/>
<rect x="-19.75" y="6270.25" width="174.5" height="189.5" stroke="#C2C2C7" stroke-width="0.5"/>
<rect x="155.25" y="6270.25" width="174.5" height="189.5" stroke="#C2C2C7" stroke-width="0.5"/>
<rect x="330.25" y="6270.25" width="174.5" height="189.5" stroke="#C2C2C7" stroke-width="0.5"/>
<rect opacity="0.3" x="505.25" y="6270.25" width="174.5" height="189.5" stroke="#C2C2C7" stroke-width="0.5"/>
<rect opacity="0.3" x="680.25" y="6270.25" width="174.5" height="189.5" stroke="#C2C2C7" stroke-width="0.5"/>
<rect opacity="0.3" x="855.25" y="6270.25" width="174.5" height="189.5" stroke="#C2C2C7" stroke-width="0.5"/>
<rect opacity="0.3" x="1030.25" y="6270.25" width="174.5" height="189.5" stroke="#C2C2C7" stroke-width="0.5"/>
<rect opacity="0.3" x="1205.25" y="6270.25" width="174.5" height="189.5" stroke="#C2C2C7" stroke-width="0.5"/>
<rect opacity="0.3" x="1380.25" y="6270.25" width="174.5" height="189.5" stroke="#C2C2C7" stroke-width="0.5"/>
<rect x="-19.75" y="6460.25" width="174.5" height="189.5" stroke="#C2C2C7" stroke-width="0.5"/>
<rect x="155.25" y="6460.25" width="174.5" height="189.5" stroke="#C2C2C7" stroke-width="0.5"/>
<rect x="330.25" y="6460.25" width="174.5" height="189.5" stroke="#C2C2C7" stroke-width="0.5"/>
<rect opacity="0.3" x="505.25" y="6460.25" width="174.5" height="189.5" stroke="#C2C2C7" stroke-width="0.5"/>
<rect opacity="0.3" x="680.25" y="6460.25" width="174.5" height="189.5" stroke="#C2C2C7" stroke-width="0.5"/>
<rect opacity="0.3" x="855.25" y="6460.25" width="174.5" height="189.5" stroke="#C2C2C7" stroke-width="0.5"/>
<rect opacity="0.3" x="1030.25" y="6460.25" width="174.5" height="189.5" stroke="#C2C2C7" stroke-width="0.5"/>
<rect opacity="0.3" x="1205.25" y="6460.25" width="174.5" height="189.5" stroke="#C2C2C7" stroke-width="0.5"/>
<rect opacity="0.3" x="1380.25" y="6460.25" width="174.5" height="189.5" stroke="#C2C2C7" stroke-width="0.5"/>
</g>
</svg>
