<svg width="1951" height="390" viewBox="0 0 1951 390" fill="none" xmlns="http://www.w3.org/2000/svg">
<rect x="-128.75" y="0.25" width="129.5" height="129.5" stroke="#E4E4E4" stroke-opacity="0.3" stroke-width="0.5"/>
<rect x="1.25" y="0.25" width="129.5" height="129.5" stroke="#E4E4E4" stroke-opacity="0.3" stroke-width="0.5"/>
<rect x="131.25" y="0.25" width="129.5" height="129.5" stroke="#E4E4E4" stroke-opacity="0.3" stroke-width="0.5"/>
<rect x="261.25" y="0.25" width="129.5" height="129.5" stroke="#E4E4E4" stroke-opacity="0.3" stroke-width="0.5"/>
<rect x="391.25" y="0.25" width="129.5" height="129.5" stroke="#E4E4E4" stroke-opacity="0.3" stroke-width="0.5"/>
<rect x="521.25" y="0.25" width="129.5" height="129.5" stroke="#E4E4E4" stroke-opacity="0.3" stroke-width="0.5"/>
<rect x="651.25" y="0.25" width="129.5" height="129.5" stroke="#E4E4E4" stroke-opacity="0.3" stroke-width="0.5"/>
<rect x="781.25" y="0.25" width="129.5" height="129.5" stroke="#E4E4E4" stroke-opacity="0.3" stroke-width="0.5"/>
<rect x="911.25" y="0.25" width="129.5" height="129.5" stroke="#E4E4E4" stroke-opacity="0.3" stroke-width="0.5"/>
<rect x="1041.25" y="0.25" width="129.5" height="129.5" stroke="#E4E4E4" stroke-opacity="0.3" stroke-width="0.5"/>
<rect x="1171.25" y="0.25" width="129.5" height="129.5" stroke="#E4E4E4" stroke-opacity="0.3" stroke-width="0.5"/>
<rect x="1301.25" y="0.25" width="129.5" height="129.5" stroke="#E4E4E4" stroke-opacity="0.3" stroke-width="0.5"/>
<rect x="1431.25" y="0.25" width="129.5" height="129.5" stroke="#E4E4E4" stroke-opacity="0.3" stroke-width="0.5"/>
<rect x="1561.25" y="0.25" width="129.5" height="129.5" stroke="#E4E4E4" stroke-opacity="0.3" stroke-width="0.5"/>
<rect x="1691.25" y="0.25" width="129.5" height="129.5" stroke="#E4E4E4" stroke-opacity="0.3" stroke-width="0.5"/>
<rect x="1821.25" y="0.25" width="129.5" height="129.5" stroke="#E4E4E4" stroke-opacity="0.3" stroke-width="0.5"/>
<rect x="-128.75" y="130.25" width="129.5" height="129.5" stroke="#E4E4E4" stroke-opacity="0.3" stroke-width="0.5"/>
<rect x="1.25" y="130.25" width="129.5" height="129.5" stroke="#E4E4E4" stroke-opacity="0.3" stroke-width="0.5"/>
<rect x="131.25" y="130.25" width="129.5" height="129.5" stroke="#E4E4E4" stroke-opacity="0.3" stroke-width="0.5"/>
<rect x="261.25" y="130.25" width="129.5" height="129.5" stroke="#E4E4E4" stroke-opacity="0.3" stroke-width="0.5"/>
<rect x="391.25" y="130.25" width="129.5" height="129.5" stroke="#E4E4E4" stroke-opacity="0.3" stroke-width="0.5"/>
<rect x="521.25" y="130.25" width="129.5" height="129.5" stroke="#E4E4E4" stroke-opacity="0.3" stroke-width="0.5"/>
<rect x="651.25" y="130.25" width="129.5" height="129.5" stroke="#E4E4E4" stroke-opacity="0.3" stroke-width="0.5"/>
<rect x="781.25" y="130.25" width="129.5" height="129.5" stroke="#E4E4E4" stroke-opacity="0.3" stroke-width="0.5"/>
<rect x="911.25" y="130.25" width="129.5" height="129.5" stroke="#E4E4E4" stroke-opacity="0.3" stroke-width="0.5"/>
<rect x="1041.25" y="130.25" width="129.5" height="129.5" stroke="#E4E4E4" stroke-opacity="0.3" stroke-width="0.5"/>
<rect x="1171.25" y="130.25" width="129.5" height="129.5" stroke="#E4E4E4" stroke-opacity="0.3" stroke-width="0.5"/>
<rect x="1301.25" y="130.25" width="129.5" height="129.5" stroke="#E4E4E4" stroke-opacity="0.3" stroke-width="0.5"/>
<rect x="1431.25" y="130.25" width="129.5" height="129.5" stroke="#E4E4E4" stroke-opacity="0.3" stroke-width="0.5"/>
<rect x="1561.25" y="130.25" width="129.5" height="129.5" stroke="#E4E4E4" stroke-opacity="0.3" stroke-width="0.5"/>
<rect x="1691.25" y="130.25" width="129.5" height="129.5" stroke="#E4E4E4" stroke-opacity="0.3" stroke-width="0.5"/>
<rect x="1821.25" y="130.25" width="129.5" height="129.5" stroke="#E4E4E4" stroke-opacity="0.3" stroke-width="0.5"/>
<rect x="-128.75" y="260.25" width="129.5" height="129.5" stroke="#E4E4E4" stroke-opacity="0.3" stroke-width="0.5"/>
<rect x="1.25" y="260.25" width="129.5" height="129.5" stroke="#E4E4E4" stroke-opacity="0.3" stroke-width="0.5"/>
<rect x="131.25" y="260.25" width="129.5" height="129.5" stroke="#E4E4E4" stroke-opacity="0.3" stroke-width="0.5"/>
<rect x="261.25" y="260.25" width="129.5" height="129.5" stroke="#E4E4E4" stroke-opacity="0.3" stroke-width="0.5"/>
<rect x="391.25" y="260.25" width="129.5" height="129.5" stroke="#E4E4E4" stroke-opacity="0.3" stroke-width="0.5"/>
<rect x="521.25" y="260.25" width="129.5" height="129.5" stroke="#E4E4E4" stroke-opacity="0.3" stroke-width="0.5"/>
<rect x="651.25" y="260.25" width="129.5" height="129.5" stroke="#E4E4E4" stroke-opacity="0.3" stroke-width="0.5"/>
<rect x="781.25" y="260.25" width="129.5" height="129.5" stroke="#E4E4E4" stroke-opacity="0.3" stroke-width="0.5"/>
<rect x="911.25" y="260.25" width="129.5" height="129.5" stroke="#E4E4E4" stroke-opacity="0.3" stroke-width="0.5"/>
<rect x="1041.25" y="260.25" width="129.5" height="129.5" stroke="#E4E4E4" stroke-opacity="0.3" stroke-width="0.5"/>
<rect x="1171.25" y="260.25" width="129.5" height="129.5" stroke="#E4E4E4" stroke-opacity="0.3" stroke-width="0.5"/>
<rect x="1301.25" y="260.25" width="129.5" height="129.5" stroke="#E4E4E4" stroke-opacity="0.3" stroke-width="0.5"/>
<rect x="1431.25" y="260.25" width="129.5" height="129.5" stroke="#E4E4E4" stroke-opacity="0.3" stroke-width="0.5"/>
<rect x="1561.25" y="260.25" width="129.5" height="129.5" stroke="#E4E4E4" stroke-opacity="0.3" stroke-width="0.5"/>
<rect x="1691.25" y="260.25" width="129.5" height="129.5" stroke="#E4E4E4" stroke-opacity="0.3" stroke-width="0.5"/>
<rect x="1821.25" y="260.25" width="129.5" height="129.5" stroke="#E4E4E4" stroke-opacity="0.3" stroke-width="0.5"/>
</svg>
