<svg width="1512" height="886" viewBox="0 0 1512 886" fill="none" xmlns="http://www.w3.org/2000/svg">
<g opacity="0.2">
<rect x="-42.75" y="-66.75" width="174.5" height="189.5" stroke="#C2C2C7" stroke-width="0.5"/>
<rect x="132.25" y="-66.75" width="174.5" height="189.5" stroke="#C2C2C7" stroke-width="0.5"/>
<rect x="307.25" y="-66.75" width="174.5" height="189.5" stroke="#C2C2C7" stroke-width="0.5"/>
<rect x="482.25" y="-66.75" width="174.5" height="189.5" stroke="#C2C2C7" stroke-width="0.5"/>
<rect x="657.25" y="-66.75" width="174.5" height="189.5" stroke="#C2C2C7" stroke-width="0.5"/>
<rect x="832.25" y="-66.75" width="174.5" height="189.5" stroke="#C2C2C7" stroke-width="0.5"/>
<rect x="1007.25" y="-66.75" width="174.5" height="189.5" stroke="#C2C2C7" stroke-width="0.5"/>
<rect x="1182.25" y="-66.75" width="174.5" height="189.5" stroke="#C2C2C7" stroke-width="0.5"/>
<rect x="1357.25" y="-66.75" width="174.5" height="189.5" stroke="#C2C2C7" stroke-width="0.5"/>
<rect x="-42.75" y="123.25" width="174.5" height="189.5" stroke="#C2C2C7" stroke-width="0.5"/>
<rect x="132.25" y="123.25" width="174.5" height="189.5" stroke="#C2C2C7" stroke-width="0.5"/>
<rect x="307.25" y="123.25" width="174.5" height="189.5" stroke="#C2C2C7" stroke-width="0.5"/>
<rect x="482.25" y="123.25" width="174.5" height="189.5" stroke="#C2C2C7" stroke-width="0.5"/>
<rect x="657.25" y="123.25" width="174.5" height="189.5" stroke="#C2C2C7" stroke-width="0.5"/>
<rect x="832.25" y="123.25" width="174.5" height="189.5" stroke="#C2C2C7" stroke-width="0.5"/>
<rect x="1007.25" y="123.25" width="174.5" height="189.5" stroke="#C2C2C7" stroke-width="0.5"/>
<rect x="1182.25" y="123.25" width="174.5" height="189.5" stroke="#C2C2C7" stroke-width="0.5"/>
<rect x="1357.25" y="123.25" width="174.5" height="189.5" stroke="#C2C2C7" stroke-width="0.5"/>
<rect x="-42.75" y="313.25" width="174.5" height="189.5" stroke="#C2C2C7" stroke-width="0.5"/>
<rect x="132.25" y="313.25" width="174.5" height="189.5" stroke="#C2C2C7" stroke-width="0.5"/>
<rect x="307.25" y="313.25" width="174.5" height="189.5" stroke="#C2C2C7" stroke-width="0.5"/>
<rect x="482.25" y="313.25" width="174.5" height="189.5" stroke="#C2C2C7" stroke-width="0.5"/>
<rect x="657.25" y="313.25" width="174.5" height="189.5" stroke="#C2C2C7" stroke-width="0.5"/>
<rect x="832.25" y="313.25" width="174.5" height="189.5" stroke="#C2C2C7" stroke-width="0.5"/>
<rect x="1007.25" y="313.25" width="174.5" height="189.5" stroke="#C2C2C7" stroke-width="0.5"/>
<rect x="1182.25" y="313.25" width="174.5" height="189.5" stroke="#C2C2C7" stroke-width="0.5"/>
<rect x="1357.25" y="313.25" width="174.5" height="189.5" stroke="#C2C2C7" stroke-width="0.5"/>
<rect x="-42.75" y="503.25" width="174.5" height="189.5" stroke="#C2C2C7" stroke-width="0.5"/>
<rect x="132.25" y="503.25" width="174.5" height="189.5" stroke="#C2C2C7" stroke-width="0.5"/>
<rect x="307.25" y="503.25" width="174.5" height="189.5" stroke="#C2C2C7" stroke-width="0.5"/>
<rect x="482.25" y="503.25" width="174.5" height="189.5" stroke="#C2C2C7" stroke-width="0.5"/>
<rect x="657.25" y="503.25" width="174.5" height="189.5" stroke="#C2C2C7" stroke-width="0.5"/>
<rect x="832.25" y="503.25" width="174.5" height="189.5" stroke="#C2C2C7" stroke-width="0.5"/>
<rect x="1007.25" y="503.25" width="174.5" height="189.5" stroke="#C2C2C7" stroke-width="0.5"/>
<rect x="1182.25" y="503.25" width="174.5" height="189.5" stroke="#C2C2C7" stroke-width="0.5"/>
<rect x="1357.25" y="503.25" width="174.5" height="189.5" stroke="#C2C2C7" stroke-width="0.5"/>
<rect x="-42.75" y="693.25" width="174.5" height="189.5" stroke="#C2C2C7" stroke-width="0.5"/>
<rect x="132.25" y="693.25" width="174.5" height="189.5" stroke="#C2C2C7" stroke-width="0.5"/>
<rect x="307.25" y="693.25" width="174.5" height="189.5" stroke="#C2C2C7" stroke-width="0.5"/>
<rect x="482.25" y="693.25" width="174.5" height="189.5" stroke="#C2C2C7" stroke-width="0.5"/>
<rect x="657.25" y="693.25" width="174.5" height="189.5" stroke="#C2C2C7" stroke-width="0.5"/>
<rect x="832.25" y="693.25" width="174.5" height="189.5" stroke="#C2C2C7" stroke-width="0.5"/>
<rect x="1007.25" y="693.25" width="174.5" height="189.5" stroke="#C2C2C7" stroke-width="0.5"/>
<rect x="1182.25" y="693.25" width="174.5" height="189.5" stroke="#C2C2C7" stroke-width="0.5"/>
<rect x="1357.25" y="693.25" width="174.5" height="189.5" stroke="#C2C2C7" stroke-width="0.5"/>
</g>
</svg>
