<svg width="45" height="38" viewBox="0 0 45 38" fill="none" xmlns="http://www.w3.org/2000/svg">
<g clip-path="url(#clip0_37_1022)">
<g clip-path="url(#clip1_37_1022)">
<g clip-path="url(#clip2_37_1022)">
<path d="M16.7523 26.2857C18.5376 28.1472 20.8466 29.1585 23.4356 29.7154C24.8411 30.0181 28.4775 29.5007 29.4131 30.1951C31.3841 31.7034 33.6456 32.6575 36.1573 33.1389C36.3859 33.1822 36.6201 33.2099 36.8514 33.2402C37.1447 33.2791 37.3847 33.2055 37.5352 32.9561C37.6847 32.7068 37.6303 32.48 37.4437 32.2739C37.2266 32.0349 37.0057 31.7978 36.7687 31.5778C36.0801 30.9417 35.5348 30.1934 35.1579 29.3757C34.8877 28.7894 35.1896 28.1539 35.7804 27.7706C35.9053 27.6895 36.0287 27.6068 36.1498 27.5213C37.2801 26.7309 38.2189 25.7854 38.7941 24.5836C39.7281 22.6353 39.5177 20.7548 38.2931 18.9668C37.3331 17.5647 36.0214 16.5596 34.4846 15.8333M8.85018 18.0213C8.97127 18.1068 9.09467 18.1895 9.21956 18.2706C9.81045 18.6539 10.1122 19.2894 9.84198 19.8757C9.46526 20.6934 8.91988 21.4417 8.23132 22.0778C7.99425 22.2978 7.77333 22.535 7.55625 22.7739C7.36961 22.98 7.31535 23.2069 7.46484 23.4561C7.61527 23.7055 7.85523 23.7791 8.14848 23.7402C8.37988 23.7099 8.6141 23.6822 8.84263 23.6389C11.3545 23.1575 13.6159 22.2034 15.5868 20.6951C16.5224 20.0007 20.1589 20.5181 21.5644 20.2154C24.1534 19.6585 26.4624 18.6472 28.2476 16.7857C30.4509 14.4878 30.591 11.3881 28.5857 8.9636C27.1871 7.27432 25.2999 6.21541 23.1347 5.55562C19.4334 4.42741 15.7306 4.48804 12.0703 5.71321C9.86218 6.45177 7.97696 7.6121 6.70678 9.46675C5.48227 11.2549 5.27188 13.1354 6.20595 15.0835C6.78112 16.2854 7.71997 17.2309 8.85018 18.0213Z" stroke="black" stroke-width="0.5" stroke-linecap="round"/>
</g>
</g>
</g>
<rect x="0.25" y="0.25" width="44.5" height="37.5" rx="4.75" stroke="#E4E4E4" stroke-width="0.5"/>
<defs>
<clipPath id="clip0_37_1022">
<rect width="45" height="38" rx="5" fill="white"/>
</clipPath>
<clipPath id="clip1_37_1022">
<rect width="45" height="38" fill="white"/>
</clipPath>
<clipPath id="clip2_37_1022">
<rect width="45" height="38" fill="white"/>
</clipPath>
</defs>
</svg>
