<svg width="45" height="38" viewBox="0 0 45 38" fill="none" xmlns="http://www.w3.org/2000/svg">
<g clip-path="url(#clip0_37_1023)">
<g clip-path="url(#clip1_37_1023)">
<path d="M16.875 14.1319C13.9781 14.1385 11.7915 14.1719 11.25 14.25C8.14341 14.25 5.625 12.1233 5.625 9.5C5.625 6.87665 8.14341 4.75 11.25 4.75C14.3566 4.75 16.875 6.87665 16.875 9.5V14.1319ZM16.875 14.1319C20.1654 14.1243 24.372 14.1514 28.125 14.187M16.875 14.1319V23.75M28.125 14.187C30.2211 14.2069 32.1756 14.2294 33.75 14.25C36.8567 14.25 39.375 12.1233 39.375 9.5C39.375 6.87665 36.8567 4.75 33.75 4.75C30.6433 4.75 28.125 6.87665 28.125 9.5V14.187ZM28.125 14.187V23.75M16.875 23.75H28.125M16.875 23.75H11.25C8.14341 23.75 5.625 25.8766 5.625 28.5C5.625 31.1234 8.14341 33.25 11.25 33.25C14.3566 33.25 16.875 31.1234 16.875 28.5V23.75ZM28.125 23.75V28.5C28.125 31.1234 30.6433 33.25 33.75 33.25C36.8567 33.25 39.375 31.1234 39.375 28.5C39.375 25.8766 36.8567 23.75 33.75 23.75H28.125Z" stroke="black" stroke-width="0.5" stroke-linecap="round"/>
</g>
</g>
<rect x="0.25" y="0.25" width="44.5" height="37.5" rx="4.75" stroke="#E4E4E4" stroke-width="0.5"/>
<defs>
<clipPath id="clip0_37_1023">
<rect width="45" height="38" rx="5" fill="white"/>
</clipPath>
<clipPath id="clip1_37_1023">
<rect width="45" height="38" fill="white"/>
</clipPath>
</defs>
</svg>
