<svg width="223" height="45" viewBox="0 0 223 45" fill="none" xmlns="http://www.w3.org/2000/svg">
<rect x="0.5" y="3.5" width="41" height="41" stroke="black"/>
<rect x="6.5" y="6.5" width="32" height="32" stroke="black"/>
<rect x="3.5" y="0.5" width="41" height="41" stroke="black"/>
<path d="M57.924 31.5V13.3H60.472L67.024 25.988L73.524 13.3H76.098V31.5H73.914V17.2L67.83 28.9H66.192L60.108 17.226V31.5H57.924ZM81.2117 37.22L84.4097 30.252H83.6557L78.5337 18.604H80.8997L85.1637 28.64L89.6877 18.604H91.9497L83.4997 37.22H81.2117ZM102.211 31.812C100.512 31.812 99.0216 31.422 97.7389 30.642C96.4563 29.8447 95.4596 28.744 94.7489 27.34C94.0383 25.9187 93.6829 24.2807 93.6829 22.426C93.6829 20.5713 94.0383 18.9333 94.7489 17.512C95.4769 16.0907 96.4996 14.9813 97.8169 14.184C99.1516 13.3867 100.72 12.988 102.523 12.988C104.568 12.988 106.267 13.482 107.619 14.47C108.988 15.458 109.872 16.8187 110.271 18.552H107.749C107.506 17.46 106.926 16.5933 106.007 15.952C105.106 15.3107 103.944 14.99 102.523 14.99C101.188 14.99 100.027 15.2933 99.0389 15.9C98.0509 16.4893 97.2796 17.3387 96.7249 18.448C96.1876 19.5573 95.9189 20.8833 95.9189 22.426C95.9189 23.9687 96.1876 25.2947 96.7249 26.404C97.2623 27.5133 98.0076 28.3713 98.9609 28.978C99.9143 29.5673 101.024 29.862 102.289 29.862C104.23 29.862 105.695 29.2987 106.683 28.172C107.671 27.028 108.234 25.468 108.373 23.492H103.121V21.776H110.609V31.5H108.607L108.425 28.51C107.766 29.5673 106.96 30.382 106.007 30.954C105.054 31.526 103.788 31.812 102.211 31.812ZM119.731 31.812C118.5 31.812 117.408 31.5347 116.455 30.98C115.501 30.408 114.747 29.6193 114.193 28.614C113.655 27.6087 113.387 26.4213 113.387 25.052C113.387 23.7 113.655 22.5213 114.193 21.516C114.73 20.4933 115.475 19.7047 116.429 19.15C117.399 18.578 118.517 18.292 119.783 18.292C121.031 18.292 122.105 18.578 123.007 19.15C123.925 19.7047 124.627 20.4413 125.113 21.36C125.598 22.2787 125.841 23.2667 125.841 24.324C125.841 24.5147 125.832 24.7053 125.815 24.896C125.815 25.0867 125.815 25.3033 125.815 25.546H115.545C115.597 26.534 115.822 27.3573 116.221 28.016C116.637 28.6573 117.148 29.1427 117.755 29.472C118.379 29.8013 119.037 29.966 119.731 29.966C120.632 29.966 121.386 29.758 121.993 29.342C122.599 28.926 123.041 28.3627 123.319 27.652H125.477C125.13 28.848 124.463 29.8447 123.475 30.642C122.504 31.422 121.256 31.812 119.731 31.812ZM119.731 20.138C118.691 20.138 117.763 20.4587 116.949 21.1C116.151 21.724 115.692 22.6427 115.571 23.856H123.683C123.631 22.6947 123.232 21.7847 122.487 21.126C121.741 20.4673 120.823 20.138 119.731 20.138ZM128.735 31.5V18.604H130.711L130.841 20.918C131.257 20.1033 131.855 19.462 132.635 18.994C133.415 18.526 134.299 18.292 135.287 18.292C136.813 18.292 138.026 18.76 138.927 19.696C139.846 20.6147 140.305 22.036 140.305 23.96V31.5H138.121V24.194C138.121 21.5073 137.012 20.164 134.793 20.164C133.684 20.164 132.757 20.5713 132.011 21.386C131.283 22.1833 130.919 23.3273 130.919 24.818V31.5H128.735ZM144.94 15.744C144.507 15.744 144.143 15.6053 143.848 15.328C143.571 15.0333 143.432 14.6693 143.432 14.236C143.432 13.82 143.571 13.4733 143.848 13.196C144.143 12.9187 144.507 12.78 144.94 12.78C145.356 12.78 145.712 12.9187 146.006 13.196C146.301 13.4733 146.448 13.82 146.448 14.236C146.448 14.6693 146.301 15.0333 146.006 15.328C145.712 15.6053 145.356 15.744 144.94 15.744ZM143.848 31.5V18.604H146.032V31.5H143.848ZM154.541 31.812C153.016 31.812 151.802 31.3527 150.901 30.434C150 29.498 149.549 28.068 149.549 26.144V18.604H151.733V25.91C151.733 28.5967 152.834 29.94 155.035 29.94C156.162 29.94 157.089 29.5413 157.817 28.744C158.562 27.9293 158.935 26.7767 158.935 25.286V18.604H161.119V31.5H159.143L158.987 29.186C158.588 30.0007 157.99 30.642 157.193 31.11C156.413 31.578 155.529 31.812 154.541 31.812ZM169.654 31.812C168.111 31.812 166.829 31.422 165.806 30.642C164.783 29.862 164.185 28.8047 164.012 27.47H166.248C166.387 28.146 166.742 28.7353 167.314 29.238C167.903 29.7233 168.692 29.966 169.68 29.966C170.599 29.966 171.275 29.7753 171.708 29.394C172.141 28.9953 172.358 28.5273 172.358 27.99C172.358 27.21 172.072 26.69 171.5 26.43C170.945 26.17 170.157 25.936 169.134 25.728C168.441 25.5893 167.747 25.39 167.054 25.13C166.361 24.87 165.78 24.506 165.312 24.038C164.844 23.5527 164.61 22.92 164.61 22.14C164.61 21.0133 165.026 20.0947 165.858 19.384C166.707 18.656 167.851 18.292 169.29 18.292C170.659 18.292 171.777 18.6387 172.644 19.332C173.528 20.008 174.039 20.9787 174.178 22.244H172.02C171.933 21.5853 171.647 21.074 171.162 20.71C170.694 20.3287 170.061 20.138 169.264 20.138C168.484 20.138 167.877 20.3027 167.444 20.632C167.028 20.9613 166.82 21.3947 166.82 21.932C166.82 22.452 167.089 22.8593 167.626 23.154C168.181 23.4487 168.926 23.7 169.862 23.908C170.659 24.0813 171.413 24.298 172.124 24.558C172.852 24.8007 173.441 25.1733 173.892 25.676C174.36 26.1613 174.594 26.872 174.594 27.808C174.611 28.9693 174.169 29.9313 173.268 30.694C172.384 31.4393 171.179 31.812 169.654 31.812ZM177.844 31.5V13.3H183.824C185.245 13.3 186.415 13.534 187.334 14.002C188.253 14.47 188.929 15.1027 189.362 15.9C189.813 16.6973 190.038 17.5987 190.038 18.604C190.038 19.592 189.821 20.4847 189.388 21.282C188.955 22.0793 188.279 22.7207 187.36 23.206C186.441 23.674 185.263 23.908 183.824 23.908H180.028V31.5H177.844ZM180.028 22.062H183.772C185.228 22.062 186.259 21.7587 186.866 21.152C187.49 20.528 187.802 19.6787 187.802 18.604C187.802 17.512 187.49 16.6627 186.866 16.056C186.259 15.432 185.228 15.12 183.772 15.12H180.028V22.062ZM192.901 31.5V13.3H198.491C201.697 13.3 204.055 14.1147 205.563 15.744C207.088 17.3733 207.851 19.6093 207.851 22.452C207.851 25.2427 207.088 27.4527 205.563 29.082C204.055 30.694 201.697 31.5 198.491 31.5H192.901ZM195.085 29.68H198.439C200.207 29.68 201.611 29.394 202.651 28.822C203.708 28.2327 204.462 27.4007 204.913 26.326C205.363 25.234 205.589 23.9427 205.589 22.452C205.589 20.9267 205.363 19.618 204.913 18.526C204.462 17.434 203.708 16.5933 202.651 16.004C201.611 15.4147 200.207 15.12 198.439 15.12H195.085V29.68ZM211.004 31.5V13.3H222.08V15.094H213.188V21.49H220.754V23.258H213.188V31.5H211.004Z" fill="black"/>
</svg>
