<svg width="1212" height="48" viewBox="0 0 1212 48" fill="none" xmlns="http://www.w3.org/2000/svg">
<path fill-rule="evenodd" clip-rule="evenodd" d="M129.765 3.4479C129.26 3.34403 128.74 3.34403 128.235 3.4479C127.651 3.56797 127.129 3.86023 126.714 4.09258L126.601 4.15574L112.542 11.9666C112.503 11.9882 112.463 12.0102 112.422 12.0328C111.982 12.2747 111.43 12.5788 111.006 13.0389C110.64 13.4368 110.362 13.9082 110.193 14.4219C109.996 15.016 109.999 15.6464 110 16.1477C110.001 16.1946 110.001 16.2403 110.001 16.2847V31.7067C110.001 31.7511 110.001 31.7969 110 31.8437C109.999 32.3451 109.996 32.9754 110.193 33.5695C110.362 34.0832 110.64 34.5547 111.006 34.9525C111.43 35.4126 111.982 35.7167 112.422 35.9586C112.463 35.9812 112.503 36.0033 112.542 36.0249L126.601 43.8357L126.714 43.8988C127.129 44.1312 127.651 44.4235 128.235 44.5435C128.74 44.6474 129.26 44.6474 129.765 44.5435C130.349 44.4235 130.871 44.1312 131.286 43.8988L131.399 43.8357L145.458 36.0249C145.476 36.0153 145.493 36.0057 145.511 35.9959C145.533 35.9837 145.556 35.9712 145.578 35.9586C146.018 35.7167 146.57 35.4126 146.994 34.9525C147.36 34.5547 147.638 34.0832 147.807 33.5695C148.004 32.9754 148.001 32.3451 148 31.8437C147.999 31.7969 147.999 31.7511 147.999 31.7067V16.2847C147.999 16.2403 147.999 16.1946 148 16.1477C148.001 15.6464 148.004 15.016 147.807 14.4219C147.638 13.9082 147.36 13.4367 146.994 13.0389C146.57 12.5788 146.018 12.2747 145.578 12.0328L145.577 12.032C145.536 12.0097 145.497 11.9879 145.458 11.9666L131.399 4.15574L131.286 4.09257C130.871 3.86022 130.349 3.56797 129.765 3.4479ZM128.446 7.47742C128.734 7.31746 128.881 7.23664 128.991 7.18376L129 7.17941L129.009 7.18376C129.119 7.23664 129.266 7.31746 129.554 7.47742L142.187 14.496L129 21.8222L115.813 14.4961L128.446 7.47742ZM113.801 17.725L127.1 25.1136L127.1 39.766L114.387 32.7032C114.083 32.5343 113.928 32.4472 113.819 32.3779L113.81 32.372L113.809 32.3611C113.801 32.2323 113.801 32.0543 113.801 31.7067V17.725Z" fill="#101828"/>
<path d="M165.291 30.3452H171.339V33.9092H160.674V14.9552H165.291V30.3452Z" fill="#101828"/>
<path d="M175.593 17.2772C174.783 17.2772 174.117 17.0432 173.595 16.5752C173.091 16.0892 172.839 15.4952 172.839 14.7932C172.839 14.0732 173.091 13.4792 173.595 13.0112C174.117 12.5252 174.783 12.2822 175.593 12.2822C176.385 12.2822 177.033 12.5252 177.537 13.0112C178.059 13.4792 178.32 14.0732 178.32 14.7932C178.32 15.4952 178.059 16.0892 177.537 16.5752C177.033 17.0432 176.385 17.2772 175.593 17.2772ZM177.888 18.8432V33.9092H173.271V18.8432H177.888Z" fill="#101828"/>
<path d="M186.688 18.6272C187.75 18.6272 188.677 18.8432 189.469 19.2752C190.279 19.7072 190.9 20.2742 191.332 20.9762V18.8432H195.949V33.8822C195.949 35.2682 195.67 36.5192 195.112 37.6352C194.572 38.7692 193.735 39.6692 192.601 40.3352C191.485 41.0012 190.09 41.3342 188.416 41.3342C186.184 41.3342 184.375 40.8032 182.989 39.7412C181.603 38.6972 180.811 37.2752 180.613 35.4752H185.176C185.32 36.0512 185.662 36.5012 186.202 36.8252C186.742 37.1672 187.408 37.3382 188.2 37.3382C189.154 37.3382 189.91 37.0592 190.468 36.5012C191.044 35.9612 191.332 35.0882 191.332 33.8822V31.7492C190.882 32.4512 190.261 33.0272 189.469 33.4772C188.677 33.9092 187.75 34.1252 186.688 34.1252C185.446 34.1252 184.321 33.8102 183.313 33.1802C182.305 32.5322 181.504 31.6232 180.91 30.4532C180.334 29.2652 180.046 27.8972 180.046 26.3492C180.046 24.8012 180.334 23.4422 180.91 22.2722C181.504 21.1022 182.305 20.2022 183.313 19.5722C184.321 18.9422 185.446 18.6272 186.688 18.6272ZM191.332 26.3762C191.332 25.2242 191.008 24.3152 190.36 23.6492C189.73 22.9832 188.956 22.6502 188.038 22.6502C187.12 22.6502 186.337 22.9832 185.689 23.6492C185.059 24.2972 184.744 25.1972 184.744 26.3492C184.744 27.5012 185.059 28.4192 185.689 29.1032C186.337 29.7692 187.12 30.1022 188.038 30.1022C188.956 30.1022 189.73 29.7692 190.36 29.1032C191.008 28.4372 191.332 27.5282 191.332 26.3762Z" fill="#101828"/>
<path d="M208.28 18.6812C210.008 18.6812 211.394 19.2572 212.438 20.4092C213.482 21.5432 214.004 23.1092 214.004 25.1072V33.9092H209.414V25.7282C209.414 24.7202 209.153 23.9372 208.631 23.3792C208.109 22.8212 207.407 22.5422 206.525 22.5422C205.643 22.5422 204.941 22.8212 204.419 23.3792C203.897 23.9372 203.636 24.7202 203.636 25.7282V33.9092H199.019V13.9292H203.636V20.8682C204.104 20.2022 204.743 19.6712 205.553 19.2752C206.363 18.8792 207.272 18.6812 208.28 18.6812Z" fill="#101828"/>
<path d="M225.34 29.9942V33.9092H222.991C221.317 33.9092 220.012 33.5042 219.076 32.6942C218.14 31.8662 217.672 30.5252 217.672 28.6712V22.6772H215.836V18.8432H217.672V15.1712H222.289V18.8432H225.313V22.6772H222.289V28.7252C222.289 29.1752 222.397 29.4992 222.613 29.6972C222.829 29.8952 223.189 29.9942 223.693 29.9942H225.34Z" fill="#101828"/>
<path d="M232.258 20.9762C232.69 20.2742 233.311 19.7072 234.121 19.2752C234.931 18.8432 235.858 18.6272 236.902 18.6272C238.144 18.6272 239.269 18.9422 240.277 19.5722C241.285 20.2022 242.077 21.1022 242.653 22.2722C243.247 23.4422 243.544 24.8012 243.544 26.3492C243.544 27.8972 243.247 29.2652 242.653 30.4532C242.077 31.6232 241.285 32.5322 240.277 33.1802C239.269 33.8102 238.144 34.1252 236.902 34.1252C235.84 34.1252 234.913 33.9182 234.121 33.5042C233.329 33.0722 232.708 32.5052 232.258 31.8032V33.9092H227.641V13.9292H232.258V20.9762ZM238.846 26.3492C238.846 25.1972 238.522 24.2972 237.874 23.6492C237.244 22.9832 236.461 22.6502 235.525 22.6502C234.607 22.6502 233.824 22.9832 233.176 23.6492C232.546 24.3152 232.231 25.2242 232.231 26.3762C232.231 27.5282 232.546 28.4372 233.176 29.1032C233.824 29.7692 234.607 30.1022 235.525 30.1022C236.443 30.1022 237.226 29.7692 237.874 29.1032C238.522 28.4192 238.846 27.5012 238.846 26.3492Z" fill="#101828"/>
<path d="M252.555 34.1252C251.079 34.1252 249.747 33.8102 248.559 33.1802C247.389 32.5502 246.462 31.6502 245.778 30.4802C245.112 29.3102 244.779 27.9422 244.779 26.3762C244.779 24.8282 245.121 23.4692 245.805 22.2992C246.489 21.1112 247.425 20.2022 248.613 19.5722C249.801 18.9422 251.133 18.6272 252.609 18.6272C254.085 18.6272 255.417 18.9422 256.605 19.5722C257.793 20.2022 258.729 21.1112 259.413 22.2992C260.097 23.4692 260.439 24.8282 260.439 26.3762C260.439 27.9242 260.088 29.2922 259.386 30.4802C258.702 31.6502 257.757 32.5502 256.551 33.1802C255.363 33.8102 254.031 34.1252 252.555 34.1252ZM252.555 30.1292C253.437 30.1292 254.184 29.8052 254.796 29.1572C255.426 28.5092 255.741 27.5822 255.741 26.3762C255.741 25.1702 255.435 24.2432 254.823 23.5952C254.229 22.9472 253.491 22.6232 252.609 22.6232C251.709 22.6232 250.962 22.9472 250.368 23.5952C249.774 24.2252 249.477 25.1522 249.477 26.3762C249.477 27.5822 249.765 28.5092 250.341 29.1572C250.935 29.8052 251.673 30.1292 252.555 30.1292Z" fill="#101828"/>
<path d="M271.528 33.9092L268.639 29.7242L266.209 33.9092H261.214L266.182 26.2142L261.079 18.8432H266.263L269.152 23.0012L271.582 18.8432H276.577L271.528 26.4302L276.712 33.9092H271.528Z" fill="#101828"/>
<path d="M308.832 4.48545L313.981 23.6998V2.57514C314.389 2.47987 314.802 2.39597 315.218 2.3238V23.7018L321.009 2.09052C321.426 2.12829 321.84 2.17773 322.25 2.23848L316.413 24.0239L328.016 3.92655C328.394 4.09661 328.767 4.27702 329.133 4.46744L317.486 24.6398L334.113 8.01292C334.413 8.29639 334.705 8.58821 334.988 8.888L318.359 25.5173L338.534 13.8694C338.724 14.2357 338.904 14.6081 339.074 14.9861L318.982 26.5865L340.762 20.7507C340.822 21.1609 340.872 21.5749 340.909 21.9922L319.298 27.7829L340.676 27.7829C340.604 28.1995 340.52 28.6121 340.424 29.0204L319.295 29.0204L338.513 34.1699C338.316 34.5478 338.108 34.9193 337.89 35.2839L318.98 30.2172L334.774 39.3356C334.475 39.6431 334.167 39.9418 333.851 40.2315L318.363 31.2897L330.082 43.0089C329.712 43.2255 329.334 43.4316 328.95 43.6267L317.487 32.1634L324.997 45.1726C324.586 45.2888 324.17 45.3934 323.749 45.486L316.414 32.7803L319.951 45.9798C319.635 45.9932 319.318 46 319 46C318.891 46 318.783 45.9992 318.674 45.9976L315.218 33.0996V45.6762C314.802 45.604 314.389 45.5201 313.981 45.4249V33.1016L310.933 44.4742C310.545 44.3209 310.162 44.1569 309.784 43.9825L312.785 32.783L307.152 42.5402C306.803 42.3169 306.461 42.084 306.126 41.8418L311.715 32.1614L303.888 39.9884C303.588 39.705 303.296 39.4132 303.013 39.1134L310.837 31.2888L301.16 36.8763C300.918 36.5413 300.685 36.1993 300.461 35.8506L310.223 30.2146L299.018 33.217C298.843 32.8395 298.679 32.4563 298.526 32.0676L309.899 29.0204L297.575 29.0204C297.48 28.6121 297.396 28.1995 297.324 27.7829L309.895 27.7829L297.002 24.3282C297.001 24.219 297 24.1096 297 24C297 23.6823 297.007 23.3662 297.02 23.0517L310.221 26.589L297.513 19.2522C297.606 18.8316 297.711 18.4154 297.827 18.0042L310.841 25.5181L299.373 14.05C299.568 13.666 299.774 13.2884 299.991 12.9177L311.715 24.6418L302.77 9.14789C303.059 8.83153 303.358 8.52366 303.666 8.22471L312.786 24.0212L307.718 5.10899C308.083 4.89075 308.454 4.68277 308.832 4.48545Z" fill="#6927DA"/>
<path d="M354.848 33.9092H359.636V25.5932H369.184V21.3652H359.636V17.8092H369.8V13.6092H354.848V33.9092Z" fill="#101828"/>
<path d="M377.938 21.9812C379.758 21.9812 381.214 23.1012 381.214 26.3212C381.214 29.4852 379.814 30.6892 377.938 30.6892C376.062 30.6892 374.662 29.4852 374.662 26.3212C374.662 23.1012 376.118 21.9812 377.938 21.9812ZM377.938 18.3972C373.766 18.3972 369.958 20.8612 369.958 26.3212C369.958 31.7812 373.766 34.2732 377.938 34.2732C382.11 34.2732 385.918 31.7812 385.918 26.3212C385.918 20.8612 382.11 18.3972 377.938 18.3972Z" fill="#101828"/>
<path d="M394.789 18.3972C390.225 18.3972 387.089 21.5052 387.089 26.2932C387.089 31.0812 389.833 34.2732 394.789 34.2732C397.813 34.2732 401.425 32.8452 402.461 28.3652H398.149C397.813 29.7932 396.777 30.6892 395.069 30.6892C393.417 30.6892 391.793 29.5972 391.793 26.3212C391.793 23.1012 393.417 21.9812 395.069 21.9812C396.441 21.9812 397.533 22.5972 397.953 24.3612H402.265C401.369 19.8252 397.925 18.3972 394.789 18.3972Z" fill="#101828"/>
<path d="M413.317 24.5012C407.465 24.9492 403.293 26.1532 403.293 29.8492C403.293 32.5932 405.645 34.2732 408.501 34.2732C410.657 34.2732 412.449 33.6852 413.569 32.0892L413.625 33.9092H418.161C417.937 32.9572 417.825 31.1932 417.825 29.5412V27.9732L417.881 24.6972C417.965 20.1332 415.501 18.3692 411.161 18.3692C406.681 18.3692 403.993 20.8892 403.769 23.7172H408.081C408.277 22.2612 409.285 21.5052 410.769 21.5052C412.449 21.5052 413.317 22.1212 413.317 23.9132V24.5012ZM413.429 27.5812C413.429 30.3532 412.029 31.1372 410.181 31.1372C408.977 31.1372 408.053 30.4932 408.053 29.5132C408.053 27.8892 410.209 27.5252 413.429 27.2172V27.5812Z" fill="#101828"/>
<path d="M424.872 13.6092H420.252V33.9092H424.872V13.6092Z" fill="#101828"/>
<path d="M427.818 13.6092V33.9092H432.606V26.8812H435.63C440.894 26.8812 444.842 25.5652 444.842 20.2172C444.842 14.8972 440.894 13.6092 435.63 13.6092H427.818ZM435.77 17.6412C438.01 17.6412 439.774 18.0892 439.774 20.2172C439.774 22.3452 438.01 22.8492 435.77 22.8492H432.606V17.6412H435.77Z" fill="#101828"/>
<path d="M452.958 21.9812C454.778 21.9812 456.234 23.1012 456.234 26.3212C456.234 29.4852 454.834 30.6892 452.958 30.6892C451.082 30.6892 449.682 29.4852 449.682 26.3212C449.682 23.1012 451.138 21.9812 452.958 21.9812ZM452.958 18.3972C448.786 18.3972 444.978 20.8612 444.978 26.3212C444.978 31.7812 448.786 34.2732 452.958 34.2732C457.13 34.2732 460.938 31.7812 460.938 26.3212C460.938 20.8612 457.13 18.3972 452.958 18.3972Z" fill="#101828"/>
<path d="M462.787 18.8452V33.9092H467.435V18.8452H462.787ZM462.787 13.6092V17.3052H467.407V13.6092H462.787Z" fill="#101828"/>
<path d="M474.804 18.8452H470.184V33.9092H474.804V26.1812C474.804 23.3812 475.616 22.0932 477.604 22.0932C479.844 22.0932 479.928 23.8572 479.928 26.0132V33.9092H484.548V24.8652C484.548 20.7772 483.344 18.5092 479.48 18.5092C477.1 18.5092 475.476 19.7132 474.804 20.8332V18.8452Z" fill="#101828"/>
<path d="M487.742 18.8452H485.362V22.1212H487.742V29.6812C487.742 33.1812 489.002 33.9092 492.726 33.9092H495.666V30.5772H494.35C492.81 30.5772 492.362 30.2972 492.362 28.8692V22.1212H495.666V18.8452H492.362V14.7292H487.742V18.8452Z" fill="#101828"/>
<path fill-rule="evenodd" clip-rule="evenodd" d="M520.72 29.0628C521.718 30.0549 521.718 31.6634 520.72 32.6555L520.669 32.7063C519.671 33.6984 518.053 33.6983 517.055 32.7062C516.057 31.7141 516.057 30.1056 517.055 29.1136L517.106 29.0627C518.104 28.0707 519.722 28.0707 520.72 29.0628Z" fill="#A4BCFD"/>
<path fill-rule="evenodd" clip-rule="evenodd" d="M532.732 29.828C533.728 30.8219 533.725 32.4304 532.726 33.4207L525.648 40.4323C524.648 41.4226 523.03 41.4197 522.034 40.4258C521.038 39.4319 521.041 37.8234 522.041 36.8331L529.119 29.8215C530.118 28.8312 531.736 28.8342 532.732 29.828Z" fill="#6172F3"/>
<path fill-rule="evenodd" clip-rule="evenodd" d="M542.339 41.898C543.121 40.7306 544.708 40.4151 545.882 41.1934L546.035 41.295C547.209 42.0733 547.527 43.6506 546.744 44.8179C545.961 45.9853 544.375 46.3008 543.201 45.5225L543.047 45.4209C541.873 44.6427 541.556 43.0654 542.339 41.898Z" fill="#A4BCFD"/>
<path fill-rule="evenodd" clip-rule="evenodd" d="M559.201 28.9104C560.198 29.9025 560.198 31.511 559.201 32.5031L555.725 35.958C554.728 36.9501 553.11 36.9501 552.112 35.958C551.114 34.9659 551.114 33.3574 552.112 32.3653L555.587 28.9104C556.585 27.9183 558.203 27.9183 559.201 28.9104Z" fill="#6172F3"/>
<path fill-rule="evenodd" clip-rule="evenodd" d="M559.252 16.1321C560.249 17.1242 560.249 18.7327 559.252 19.7248L533.572 45.2559C532.574 46.248 530.956 46.248 529.959 45.2559C528.961 44.2638 528.961 42.6553 529.959 41.6632L555.638 16.1321C556.636 15.14 558.254 15.14 559.252 16.1321Z" fill="#3538CD"/>
<path fill-rule="evenodd" clip-rule="evenodd" d="M554.397 8.28219C555.395 9.27428 555.395 10.8828 554.397 11.8749L539.628 26.5585C538.63 27.5506 537.012 27.5506 536.014 26.5585C535.016 25.5664 535.016 23.9579 536.014 22.9658L550.783 8.28219C551.781 7.29009 553.399 7.29009 554.397 8.28219Z" fill="#3538CD"/>
<path fill-rule="evenodd" clip-rule="evenodd" d="M546.602 3.30176C547.601 4.29319 547.602 5.90169 546.605 6.89445L527.62 25.7951C526.623 26.7879 525.005 26.789 524.006 25.7976C523.008 24.8061 523.007 23.1976 524.004 22.2049L542.989 3.30418C543.986 2.31142 545.604 2.31034 546.602 3.30176Z" fill="#3538CD"/>
<path fill-rule="evenodd" clip-rule="evenodd" d="M527.801 9.35224C528.797 10.346 528.794 11.9545 527.794 12.9449L520.359 20.3121C519.359 21.3025 517.741 21.2997 516.745 20.3059C515.749 19.3121 515.752 17.7036 516.752 16.7133L524.187 9.34605C525.187 8.35567 526.804 8.35844 527.801 9.35224Z" fill="#6172F3"/>
<path fill-rule="evenodd" clip-rule="evenodd" d="M532.353 2C533.764 2 534.908 3.13738 534.908 4.54042V4.79446C534.908 6.19749 533.764 7.33487 532.353 7.33487C530.942 7.33487 529.798 6.19749 529.798 4.79446V4.54042C529.798 3.13738 530.942 2 532.353 2Z" fill="#A4BCFD"/>
<path d="M578 23.4693H581.93C583.39 23.4693 584.67 23.2693 585.77 22.8693C586.89 22.4493 587.77 21.8493 588.41 21.0693C589.07 20.2893 589.4 19.3493 589.4 18.2493C589.4 17.0493 589.07 16.0593 588.41 15.2793C587.77 14.4793 586.89 13.8893 585.77 13.5093C584.67 13.1093 583.39 12.9093 581.93 12.9093H574.22V33.9093H582.44C584.1 33.9093 585.54 33.7093 586.76 33.3093C587.98 32.8893 588.92 32.2493 589.58 31.3893C590.26 30.5293 590.6 29.3993 590.6 27.9993C590.6 26.9393 590.36 26.0393 589.88 25.2993C589.42 24.5393 588.8 23.9193 588.02 23.4393C587.24 22.9393 586.37 22.5793 585.41 22.3593C584.45 22.1393 583.46 22.0293 582.44 22.0293H578V24.7893H581.87C582.37 24.7893 582.82 24.8393 583.22 24.9393C583.64 25.0193 584.01 25.1593 584.33 25.3593C584.65 25.5593 584.9 25.8193 585.08 26.1393C585.26 26.4593 585.35 26.8393 585.35 27.2793C585.35 27.9593 585.19 28.4993 584.87 28.8993C584.57 29.2793 584.16 29.5593 583.64 29.7393C583.12 29.8993 582.53 29.9793 581.87 29.9793H579.29V16.8393H581.39C582.27 16.8393 582.95 17.0193 583.43 17.3793C583.91 17.7393 584.15 18.2793 584.15 18.9993C584.15 19.4793 584.04 19.8893 583.82 20.2293C583.6 20.5493 583.28 20.7993 582.86 20.9793C582.46 21.1593 581.97 21.2493 581.39 21.2493H578V23.4693Z" fill="#101828"/>
<path d="M592.522 14.9193C592.522 15.6393 592.782 16.2293 593.302 16.6893C593.822 17.1493 594.442 17.3793 595.162 17.3793C595.902 17.3793 596.522 17.1493 597.022 16.6893C597.542 16.2293 597.802 15.6393 597.802 14.9193C597.802 14.1993 597.542 13.6193 597.022 13.1793C596.522 12.7193 595.902 12.4893 595.162 12.4893C594.442 12.4893 593.822 12.7193 593.302 13.1793C592.782 13.6193 592.522 14.1993 592.522 14.9193ZM592.972 20.1093V33.9093H597.352V20.1093H592.972Z" fill="#101828"/>
<path d="M599.373 27.0093C599.373 28.4493 599.713 29.7093 600.393 30.7893C601.073 31.8693 602.013 32.7093 603.213 33.3093C604.413 33.9093 605.763 34.2093 607.263 34.2093C608.763 34.2093 610.103 33.9093 611.283 33.3093C612.483 32.7093 613.423 31.8693 614.103 30.7893C614.803 29.7093 615.153 28.4493 615.153 27.0093C615.153 25.5493 614.803 24.2793 614.103 23.1993C613.423 22.1193 612.483 21.2793 611.283 20.6793C610.103 20.0793 608.763 19.7793 607.263 19.7793C605.763 19.7793 604.413 20.0793 603.213 20.6793C602.013 21.2793 601.073 22.1193 600.393 23.1993C599.713 24.2793 599.373 25.5493 599.373 27.0093ZM604.023 27.0093C604.023 26.2893 604.173 25.6693 604.473 25.1493C604.773 24.6293 605.163 24.2293 605.643 23.9493C606.123 23.6693 606.663 23.5293 607.263 23.5293C607.843 23.5293 608.373 23.6693 608.853 23.9493C609.353 24.2293 609.743 24.6293 610.023 25.1493C610.323 25.6693 610.473 26.2893 610.473 27.0093C610.473 27.7293 610.323 28.3493 610.023 28.8693C609.743 29.3693 609.353 29.7593 608.853 30.0393C608.373 30.3193 607.843 30.4593 607.263 30.4593C606.663 30.4593 606.123 30.3193 605.643 30.0393C605.163 29.7593 604.773 29.3693 604.473 28.8693C604.173 28.3493 604.023 27.7293 604.023 27.0093Z" fill="#101828"/>
<path d="M617.728 28.8993L615.838 31.8993C616.458 32.3793 617.128 32.8193 617.848 33.2193C618.568 33.5993 619.348 33.8993 620.188 34.1193C621.048 34.3593 621.978 34.4793 622.978 34.4793C624.618 34.4793 625.888 34.1093 626.788 33.3693C627.708 32.6093 628.168 31.4893 628.168 30.0093C628.168 29.1493 627.978 28.4593 627.598 27.9393C627.238 27.4193 626.748 26.9893 626.128 26.6493C625.528 26.3093 624.868 26.0093 624.148 25.7493C623.468 25.4893 622.888 25.2793 622.408 25.1193C621.948 24.9393 621.588 24.7493 621.328 24.5493C621.088 24.3493 620.968 24.0993 620.968 23.7993C620.968 23.5393 621.068 23.3293 621.268 23.1693C621.488 23.0093 621.808 22.9293 622.228 22.9293C622.848 22.9293 623.528 23.1093 624.268 23.4693C625.008 23.8093 625.668 24.2493 626.248 24.7893L627.868 21.8493C627.328 21.4493 626.748 21.0993 626.128 20.7993C625.528 20.4993 624.878 20.2593 624.178 20.0793C623.498 19.8993 622.758 19.8093 621.958 19.8093C620.958 19.8093 620.068 19.9593 619.288 20.2593C618.528 20.5593 617.918 20.9993 617.458 21.5793C617.018 22.1593 616.798 22.8693 616.798 23.7093C616.798 24.5893 616.988 25.3093 617.368 25.8693C617.748 26.4293 618.228 26.8793 618.808 27.2193C619.408 27.5393 620.038 27.8193 620.698 28.0593C621.438 28.2793 622.018 28.4893 622.438 28.6893C622.878 28.8893 623.188 29.0993 623.368 29.3193C623.548 29.5193 623.638 29.7693 623.638 30.0693C623.638 30.3893 623.528 30.6493 623.308 30.8493C623.088 31.0493 622.748 31.1493 622.288 31.1493C621.968 31.1493 621.588 31.0893 621.148 30.9693C620.708 30.8293 620.198 30.5993 619.618 30.2793C619.058 29.9393 618.428 29.4793 617.728 28.8993Z" fill="#101828"/>
<path d="M643.743 20.1093H639.093L634.683 31.1493L637.023 31.1793L632.553 20.1093H627.573L633.543 32.7993L630.183 40.5093H634.743L643.743 20.1093Z" fill="#101828"/>
<path d="M653.328 25.5093V33.9093H658.038V25.0293C658.038 23.3693 657.648 22.0793 656.868 21.1593C656.088 20.2393 654.838 19.7793 653.118 19.7793C652.098 19.7793 651.238 19.9893 650.538 20.4093C649.858 20.8293 649.318 21.4193 648.918 22.1793V20.1093H644.358V33.9093H648.918V25.5093C648.918 24.9693 649.018 24.5093 649.218 24.1293C649.418 23.7493 649.698 23.4593 650.058 23.2593C650.418 23.0593 650.838 22.9593 651.318 22.9593C652.038 22.9593 652.548 23.1793 652.848 23.6193C653.168 24.0593 653.328 24.6893 653.328 25.5093Z" fill="#101828"/>
<path d="M659.094 20.1093V23.8593H668.334V20.1093H659.094ZM661.524 15.3093V33.9093H665.874V15.3093H661.524Z" fill="#101828"/>
<path d="M673.924 10.5093H669.364V33.9093H673.924V10.5093ZM678.334 25.5093V33.9093H682.864V24.8493C682.864 23.7093 682.704 22.7493 682.384 21.9693C682.064 21.1893 681.554 20.5993 680.854 20.1993C680.174 19.7993 679.264 19.5993 678.124 19.5993C676.984 19.5993 676.044 19.8693 675.304 20.4093C674.584 20.9293 674.045 21.6393 673.685 22.5393C673.325 23.4193 673.145 24.4093 673.145 25.5093H673.924C673.924 24.9693 674.024 24.5193 674.224 24.1593C674.424 23.7793 674.704 23.4893 675.064 23.2893C675.424 23.0693 675.844 22.9593 676.325 22.9593C677.064 22.9593 677.584 23.1793 677.884 23.6193C678.185 24.0593 678.334 24.6893 678.334 25.5093Z" fill="#101828"/>
<path d="M692.565 34.2093C694.325 34.2093 695.815 33.8693 697.035 33.1893C698.275 32.5093 699.255 31.4893 699.975 30.1293L695.925 29.1393C695.585 29.7393 695.125 30.1893 694.545 30.4893C693.985 30.7893 693.305 30.9393 692.505 30.9393C691.805 30.9393 691.215 30.7893 690.735 30.4893C690.255 30.1693 689.895 29.7093 689.655 29.1093C689.415 28.5093 689.295 27.7893 689.295 26.9493C689.315 26.0293 689.435 25.2693 689.655 24.6693C689.895 24.0493 690.245 23.5893 690.705 23.2893C691.165 22.9893 691.735 22.8393 692.415 22.8393C692.955 22.8393 693.425 22.9593 693.825 23.1993C694.225 23.4393 694.535 23.7793 694.755 24.2193C694.975 24.6593 695.085 25.1793 695.085 25.7793C695.085 25.9193 695.045 26.0993 694.965 26.3193C694.905 26.5193 694.825 26.6893 694.725 26.8293L695.805 25.4493H687.285V27.9693H699.885C699.925 27.8293 699.945 27.6593 699.945 27.4593C699.945 27.2393 699.945 27.0193 699.945 26.7993C699.945 25.3193 699.655 24.0593 699.075 23.0193C698.495 21.9793 697.655 21.1893 696.555 20.6493C695.455 20.0893 694.105 19.8093 692.505 19.8093C690.905 19.8093 689.515 20.0993 688.335 20.6793C687.175 21.2593 686.285 22.0893 685.665 23.1693C685.045 24.2493 684.735 25.5293 684.735 27.0093C684.735 28.4693 685.055 29.7393 685.695 30.8193C686.335 31.8993 687.235 32.7393 688.395 33.3393C689.575 33.9193 690.965 34.2093 692.565 34.2093Z" fill="#101828"/>
<path d="M702.592 28.8993L700.702 31.8993C701.322 32.3793 701.992 32.8193 702.712 33.2193C703.432 33.5993 704.212 33.8993 705.052 34.1193C705.912 34.3593 706.842 34.4793 707.842 34.4793C709.482 34.4793 710.752 34.1093 711.652 33.3693C712.572 32.6093 713.032 31.4893 713.032 30.0093C713.032 29.1493 712.842 28.4593 712.462 27.9393C712.102 27.4193 711.612 26.9893 710.992 26.6493C710.392 26.3093 709.732 26.0093 709.012 25.7493C708.332 25.4893 707.752 25.2793 707.272 25.1193C706.812 24.9393 706.452 24.7493 706.192 24.5493C705.952 24.3493 705.832 24.0993 705.832 23.7993C705.832 23.5393 705.932 23.3293 706.132 23.1693C706.352 23.0093 706.672 22.9293 707.092 22.9293C707.712 22.9293 708.392 23.1093 709.132 23.4693C709.872 23.8093 710.532 24.2493 711.112 24.7893L712.732 21.8493C712.192 21.4493 711.612 21.0993 710.992 20.7993C710.392 20.4993 709.742 20.2593 709.042 20.0793C708.362 19.8993 707.622 19.8093 706.822 19.8093C705.822 19.8093 704.932 19.9593 704.152 20.2593C703.392 20.5593 702.782 20.9993 702.322 21.5793C701.882 22.1593 701.662 22.8693 701.662 23.7093C701.662 24.5893 701.852 25.3093 702.232 25.8693C702.612 26.4293 703.092 26.8793 703.672 27.2193C704.272 27.5393 704.902 27.8193 705.562 28.0593C706.302 28.2793 706.882 28.4893 707.302 28.6893C707.742 28.8893 708.052 29.0993 708.232 29.3193C708.412 29.5193 708.502 29.7693 708.502 30.0693C708.502 30.3893 708.392 30.6493 708.172 30.8493C707.952 31.0493 707.612 31.1493 707.152 31.1493C706.832 31.1493 706.452 31.0893 706.012 30.9693C705.572 30.8293 705.062 30.5993 704.482 30.2793C703.922 29.9393 703.292 29.4793 702.592 28.8993Z" fill="#101828"/>
<path d="M714.353 14.9193C714.353 15.6393 714.613 16.2293 715.133 16.6893C715.653 17.1493 716.273 17.3793 716.993 17.3793C717.733 17.3793 718.353 17.1493 718.853 16.6893C719.373 16.2293 719.633 15.6393 719.633 14.9193C719.633 14.1993 719.373 13.6193 718.853 13.1793C718.353 12.7193 717.733 12.4893 716.993 12.4893C716.273 12.4893 715.653 12.7193 715.133 13.1793C714.613 13.6193 714.353 14.1993 714.353 14.9193ZM714.803 20.1093V33.9093H719.183V20.1093H714.803Z" fill="#101828"/>
<path d="M722.765 28.8993L720.875 31.8993C721.495 32.3793 722.165 32.8193 722.885 33.2193C723.605 33.5993 724.385 33.8993 725.225 34.1193C726.085 34.3593 727.015 34.4793 728.015 34.4793C729.655 34.4793 730.925 34.1093 731.825 33.3693C732.745 32.6093 733.205 31.4893 733.205 30.0093C733.205 29.1493 733.015 28.4593 732.635 27.9393C732.275 27.4193 731.785 26.9893 731.165 26.6493C730.564 26.3093 729.905 26.0093 729.185 25.7493C728.505 25.4893 727.924 25.2793 727.445 25.1193C726.984 24.9393 726.624 24.7493 726.365 24.5493C726.124 24.3493 726.005 24.0993 726.005 23.7993C726.005 23.5393 726.105 23.3293 726.305 23.1693C726.525 23.0093 726.845 22.9293 727.265 22.9293C727.885 22.9293 728.564 23.1093 729.305 23.4693C730.045 23.8093 730.705 24.2493 731.285 24.7893L732.905 21.8493C732.365 21.4493 731.785 21.0993 731.165 20.7993C730.564 20.4993 729.915 20.2593 729.215 20.0793C728.535 19.8993 727.795 19.8093 726.995 19.8093C725.995 19.8093 725.105 19.9593 724.325 20.2593C723.565 20.5593 722.955 20.9993 722.495 21.5793C722.055 22.1593 721.835 22.8693 721.835 23.7093C721.835 24.5893 722.025 25.3093 722.405 25.8693C722.785 26.4293 723.265 26.8793 723.845 27.2193C724.445 27.5393 725.075 27.8193 725.735 28.0593C726.475 28.2793 727.055 28.4893 727.475 28.6893C727.915 28.8893 728.225 29.0993 728.405 29.3193C728.585 29.5193 728.675 29.7693 728.675 30.0693C728.675 30.3893 728.565 30.6493 728.345 30.8493C728.125 31.0493 727.785 31.1493 727.325 31.1493C727.005 31.1493 726.625 31.0893 726.185 30.9693C725.745 30.8293 725.235 30.5993 724.655 30.2793C724.095 29.9393 723.465 29.4793 722.765 28.8993Z" fill="#101828"/>
<circle cx="770" cy="18" r="14" stroke="#7839EE" stroke-width="4"/>
<circle cx="778" cy="30" r="14" stroke="#7839EE" stroke-width="4"/>
<path d="M805.95 33.9092H810.48V12.9092H805.95V33.9092Z" fill="#101828"/>
<path d="M812.468 33.9092H816.668V25.6292C816.668 23.6792 817.958 22.2692 819.788 22.2692C821.528 22.2692 822.698 23.5892 822.698 25.4192V33.9092H826.898V24.4892C826.898 21.0092 824.678 18.5492 821.258 18.5492C819.188 18.5492 817.508 19.4192 816.668 20.8892V18.7892H812.468V33.9092Z" fill="#101828"/>
<path d="M829.939 14.3192V18.7892H827.029V22.2692H829.939V28.4192C829.939 31.9292 832.189 33.9092 835.669 33.9092H838.159V30.3992H836.239C834.889 30.3992 834.109 29.7092 834.109 28.2392V22.2692H838.159V18.7892H834.109V14.3192H829.939Z" fill="#101828"/>
<path d="M848.757 28.7792C848.427 30.0692 847.317 30.7292 845.637 30.7292C843.537 30.7292 842.187 29.4092 841.887 27.2792H852.747C852.777 26.9492 852.807 26.4992 852.807 25.9292C852.807 22.4792 850.677 18.5492 845.337 18.5492C840.207 18.5492 837.867 22.4792 837.867 26.3192C837.867 30.1292 840.507 34.1492 845.637 34.1492C849.357 34.1492 852.237 32.0492 852.837 28.7792H848.757ZM845.337 21.6092C847.347 21.6092 848.517 22.9592 848.637 24.6392H841.947C842.307 22.5392 843.447 21.6092 845.337 21.6092Z" fill="#101828"/>
<path d="M863.302 22.2692V18.7892H861.592C859.762 18.7892 858.622 19.4192 857.812 21.3092V18.7892H853.612V33.9092H857.812V26.5592C857.812 23.9792 858.742 22.2692 860.812 22.2692H863.302Z" fill="#101828"/>
<path d="M863.983 33.9092H868.153V12.2192H863.983V33.9092Z" fill="#101828"/>
<path d="M877.148 34.1492C881.798 34.1492 885.128 30.8492 885.128 26.3492C885.128 21.8492 881.798 18.5492 877.148 18.5492C872.498 18.5492 869.168 21.8492 869.168 26.3492C869.168 30.8492 872.498 34.1492 877.148 34.1492ZM877.148 30.5492C874.898 30.5492 873.368 28.8392 873.368 26.3492C873.368 23.8292 874.898 22.1192 877.148 22.1192C879.398 22.1192 880.928 23.8292 880.928 26.3492C880.928 28.8392 879.398 30.5492 877.148 30.5492Z" fill="#101828"/>
<path d="M892.929 34.1492C896.859 34.1492 899.979 31.6292 900.429 28.2692H896.169C895.869 29.6192 894.639 30.5492 893.109 30.5492C890.829 30.5492 889.479 28.8092 889.479 26.3492C889.479 23.8892 890.799 22.1192 893.049 22.1192C894.579 22.1192 895.869 23.1092 896.109 24.4592H900.309C900.039 20.9492 896.889 18.5492 892.929 18.5492C888.249 18.5492 885.129 21.9392 885.129 26.3492C885.129 30.7592 888.249 34.1492 892.929 34.1492Z" fill="#101828"/>
<path d="M911.46 33.9092H916.5L909.99 24.7292L916.02 18.7892H910.74L905.49 23.9492V12.2192H901.29V33.9092H905.49V29.1692L907.17 27.5192L911.46 33.9092Z" fill="#101828"/>
<path d="M952.714 33.4286C961.393 33.4286 968.429 26.393 968.429 17.7143C968.429 16.7307 968.338 15.7682 968.165 14.8347C967.232 14.6618 966.269 14.5714 965.286 14.5714C956.607 14.5714 949.572 21.6069 949.572 30.2857C949.572 31.2693 949.662 32.2318 949.835 33.1653C950.768 33.3382 951.731 33.4286 952.714 33.4286Z" fill="#175CD3"/>
<path fill-rule="evenodd" clip-rule="evenodd" d="M949.835 33.1653C942.531 31.8127 937 25.4095 937 17.7143C937 9.03553 944.036 2 952.714 2C960.409 2 966.813 7.53118 968.165 14.8347C967.232 14.6618 966.269 14.5714 965.286 14.5714C956.607 14.5714 949.571 21.607 949.571 30.2857C949.571 31.2693 949.662 32.2318 949.835 33.1653Z" fill="#1570EF"/>
<path fill-rule="evenodd" clip-rule="evenodd" d="M952.714 33.4285C961.393 33.4285 968.429 26.393 968.429 17.7142C968.429 16.7306 968.338 15.7681 968.165 14.8346C975.469 16.1872 981 22.5905 981 30.2856C981 38.9644 973.965 45.9999 965.286 45.9999C957.591 45.9999 951.187 40.4687 949.835 33.1652C950.768 33.3381 951.731 33.4285 952.714 33.4285Z" fill="#2E90FA"/>
<path d="M1004.55 34.24C1009.92 34.24 1013.79 31.21 1014.18 26.71H1009.68C1009.32 28.87 1007.25 30.34 1004.55 30.34C1001.16 30.34 998.55 28 998.55 23.5C998.55 19 1001.16 16.63 1004.55 16.63C1007.19 16.63 1009.26 18.1 1009.56 20.29H1014.27C1013.7 15.76 1009.83 12.76 1004.55 12.76C998.94 12.76 994.02 16.42 994.02 23.5C994.02 30.58 998.85 34.24 1004.55 34.24Z" fill="#101828"/>
<path d="M1022.53 18.64C1018.39 18.64 1015.93 21.07 1015.75 24.1H1019.47C1019.53 22.84 1020.46 21.7 1022.29 21.7C1024 21.7 1024.99 22.57 1024.99 23.83C1024.99 24.46 1024.6 24.94 1023.85 24.94H1021.3C1018 24.94 1015.78 26.74 1015.78 29.71C1015.78 32.29 1017.79 34.24 1020.73 34.24C1022.8 34.24 1024.48 33.31 1024.99 31.9V34H1029.13V24.28C1029.13 20.86 1026.34 18.64 1022.53 18.64ZM1021.78 31.21C1020.61 31.21 1019.77 30.52 1019.77 29.53C1019.77 28.36 1020.67 27.58 1021.93 27.58H1024.99V27.79C1024.99 29.71 1023.82 31.21 1021.78 31.21Z" fill="#101828"/>
<path d="M1031.93 40.12H1036.1V32.65C1036.91 33.67 1038.38 34.24 1040.09 34.24C1044.44 34.24 1047.38 31.15 1047.38 26.44C1047.38 21.73 1044.68 18.64 1040.45 18.64C1038.5 18.64 1037 19.36 1036.1 20.53V18.88H1031.93V40.12ZM1039.58 30.64C1037.33 30.64 1035.86 28.96 1035.86 26.44C1035.86 23.89 1037.33 22.21 1039.58 22.21C1041.77 22.21 1043.27 23.89 1043.27 26.44C1043.27 28.96 1041.77 30.64 1039.58 30.64Z" fill="#101828"/>
<path d="M1054.73 34.24C1058.27 34.24 1060.61 32.35 1060.61 29.47C1060.61 22.63 1052.33 26.14 1052.33 23.05C1052.33 22.09 1053.14 21.58 1054.31 21.58C1055.45 21.58 1056.62 22.27 1056.8 23.56H1060.43C1060.28 20.59 1057.82 18.64 1054.19 18.64C1051.1 18.64 1048.79 20.53 1048.79 23.2C1048.79 29.56 1056.92 26.53 1056.92 29.62C1056.92 30.46 1056.02 31.09 1054.73 31.09C1053.17 31.09 1052.12 30.25 1051.97 28.9H1048.37C1048.52 32.17 1051.04 34.24 1054.73 34.24Z" fill="#101828"/>
<path d="M1077.08 18.88H1072.88V27.16C1072.88 29.08 1071.59 30.52 1069.76 30.52C1068.05 30.52 1066.85 29.2 1066.85 27.37V18.88H1062.68V28.3C1062.68 31.75 1064.9 34.24 1068.29 34.24C1070.36 34.24 1072.04 33.34 1072.88 31.9V34H1077.08V18.88Z" fill="#101828"/>
<path d="M1080.08 34H1084.25V12.31H1080.08V34Z" fill="#101828"/>
<path d="M1097.35 28.87C1097.02 30.16 1095.91 30.82 1094.23 30.82C1092.13 30.82 1090.78 29.5 1090.48 27.37H1101.34C1101.37 27.04 1101.4 26.59 1101.4 26.02C1101.4 22.57 1099.27 18.64 1093.93 18.64C1088.8 18.64 1086.46 22.57 1086.46 26.41C1086.46 30.22 1089.1 34.24 1094.23 34.24C1097.95 34.24 1100.83 32.14 1101.43 28.87H1097.35ZM1093.93 21.7C1095.94 21.7 1097.11 23.05 1097.23 24.73H1090.54C1090.9 22.63 1092.04 21.7 1093.93 21.7Z" fill="#101828"/>
</svg>
